<svg xmlns="http://www.w3.org/2000/svg" width="761" height="542" viewBox="0 0 761 542">
<g>
<path d="M 248.23 241.49 L 247.96 317.82 L 236.94 318.50 L 237.22 242.00 L 237.50 165.50 L 240.11 159.93 C245.46,148.53 255.61,142.11 269.70,141.24 L 278.00 140.72 L 278.00 136.33 C278.00,130.68 280.02,125.92 283.61,123.09 C286.28,120.99 287.26,120.87 299.04,121.18 C311.09,121.49 311.76,121.62 314.89,124.25 C317.50,126.45 319.16,127.00 323.15,127.00 C327.38,127.00 328.62,126.53 331.15,124.00 C334.15,121.00 334.16,121.00 346.13,121.00 C358.31,121.00 361.98,121.87 364.95,125.43 C365.82,126.49 367.94,127.00 371.44,127.00 C375.90,127.00 377.03,126.58 379.50,124.00 L 382.37 121.00 L 395.04 121.00 C407.52,121.00 407.76,121.04 411.84,124.00 C415.14,126.39 417.01,127.00 421.02,127.00 C424.63,127.00 426.23,126.56 426.65,125.46 C427.91,122.19 432.56,121.00 444.11,121.00 L 455.31 121.00 L 459.05 124.93 C462.20,128.24 462.90,129.79 463.47,134.75 L 464.15 140.64 L 469.62 142.32 C472.62,143.24 475.75,144.00 476.56,144.00 C479.52,144.00 491.69,150.91 495.33,154.66 C497.39,156.77 500.18,160.73 501.53,163.45 L 504.00 168.39 L 503.96 211.95 L 503.92 255.50 L 499.74 258.17 C497.44,259.64 495.20,260.63 494.78,260.36 C494.35,260.10 494.00,240.34 494.00,216.46 C494.00,178.51 493.79,172.50 492.35,168.77 C490.85,164.89 486.46,159.00 485.06,159.00 C484.75,159.00 484.62,183.03 484.77,212.39 L 485.03 265.79 L 480.59 268.39 C478.14,269.83 475.89,271.00 475.57,271.00 C475.26,271.00 475.00,247.94 474.99,219.75 C474.99,187.07 474.61,167.13 473.94,164.72 C472.61,159.93 467.72,154.33 463.23,152.45 C461.32,151.65 459.36,151.00 458.88,151.00 C458.40,151.00 458.00,154.64 458.00,159.10 C458.00,171.22 454.67,176.67 445.80,179.05 C441.11,180.32 436.23,179.05 431.14,175.24 C426.60,171.85 425.00,167.50 425.00,158.53 L 425.00 151.00 L 410.00 151.00 L 410.00 158.84 C410.00,165.08 409.53,167.59 407.70,171.09 C403.58,178.99 393.99,181.60 385.35,177.19 C378.87,173.87 377.00,169.93 377.00,159.59 L 377.00 150.92 L 368.75 151.21 C360.63,151.50 360.50,151.54 360.19,154.18 C359.76,157.91 357.70,159.46 355.22,157.90 C353.60,156.89 353.18,155.09 352.64,146.93 C351.92,135.99 352.52,132.40 354.41,136.19 C356.01,139.41 360.00,139.53 360.00,136.36 C360.00,135.06 359.58,134.00 359.07,134.00 C358.55,134.00 357.85,133.10 357.50,132.00 C356.93,130.19 355.99,130.00 347.63,130.00 C341.79,130.00 337.96,130.44 337.20,131.20 C336.37,132.03 336.00,137.26 336.00,148.28 L 336.00 164.15 L 338.92 167.08 C342.01,170.16 347.51,171.09 349.71,168.89 C351.02,167.58 353.00,168.53 353.00,170.45 C353.00,172.44 355.68,173.09 357.05,171.44 C357.71,170.65 358.75,170.01 359.37,170.02 C360.09,170.03 360.14,170.30 359.50,170.77 C358.95,171.17 358.02,172.40 357.43,173.50 C355.76,176.59 350.06,179.00 344.40,179.00 C340.33,179.00 338.47,178.40 335.19,176.02 C329.36,171.80 328.00,168.59 328.00,159.05 L 328.00 151.00 L 312.00 151.00 L 312.00 159.85 C312.00,170.52 310.11,174.20 302.78,177.84 C297.25,180.59 292.07,180.20 286.80,176.64 C280.69,172.53 279.00,168.74 279.00,159.22 L 279.00 150.74 L 271.18 151.20 C261.64,151.75 255.97,154.53 251.54,160.84 L 248.50 165.17 ZM 475.84 432.12 L 472.50 434.50 L 263.50 434.97 L 257.72 432.58 C254.55,431.27 251.34,429.70 250.60,429.08 C249.86,428.47 248.60,428.22 247.80,428.53 C246.02,429.20 239.76,419.48 238.11,413.50 C237.45,411.11 237.01,399.91 237.01,385.70 L 237.00 361.90 L 241.25 359.97 C243.59,358.91 246.06,358.03 246.75,358.02 C247.72,358.00 248.00,363.91 248.00,384.25 C248.00,414.09 248.18,414.93 255.83,420.72 L 260.16 424.00 L 314.33 424.00 L 368.50 424.00 L 378.10 420.06 C416.36,404.37 444.01,378.75 460.52,343.66 C467.78,328.24 473.93,307.04 473.98,297.27 C474.00,293.33 474.28,292.90 478.10,290.95 C480.35,289.80 482.79,289.09 483.51,289.37 C484.58,289.78 484.85,302.25 484.95,355.73 L 485.08 421.59 L 482.13 425.66 C480.51,427.90 477.68,430.81 475.84,432.12 ZM 274.70 472.46 C262.17,474.10 253.26,474.24 243.50,472.96 C236.79,472.08 222.46,468.58 218.25,466.79 C215.01,465.41 204.00,458.88 204.00,458.34 C204.00,458.13 206.36,459.16 209.24,460.62 C214.71,463.39 216.00,463.84 227.50,466.97 C241.28,470.71 268.56,470.50 287.50,466.51 C297.58,464.39 310.68,460.09 312.02,458.47 C313.36,456.86 312.83,456.70 300.76,455.07 C296.50,454.49 291.34,453.11 289.28,452.01 C287.22,450.90 284.85,449.95 284.01,449.90 C283.18,449.84 284.30,449.20 286.50,448.47 C289.69,447.42 309.40,447.14 383.57,447.08 L 476.64 447.00 L 482.07 444.25 C490.42,440.02 493.98,433.29 493.99,421.75 C494.00,416.15 494.07,416.00 496.75,415.99 C498.26,415.98 500.57,415.69 501.87,415.34 L 504.24 414.70 L 503.81 424.60 C503.48,432.31 502.89,435.45 501.15,438.80 C497.74,445.35 492.42,450.65 486.16,453.72 L 480.50 456.50 L 405.00 457.00 C337.59,457.45 329.18,457.68 326.50,459.14 C322.11,461.53 302.68,467.67 294.00,469.41 C289.88,470.23 281.19,471.61 274.70,472.46 ZM 396.00 423.59 C396.00,423.82 412.40,424.00 432.45,424.00 L 468.90 424.00 L 471.70 420.33 L 474.50 416.66 L 474.66 380.08 C474.76,359.96 474.58,342.23 474.29,340.69 C473.81,338.20 472.98,339.38 467.28,350.69 C456.51,372.04 447.07,384.84 432.09,398.35 C422.89,406.65 412.97,413.82 403.25,419.18 C399.26,421.38 396.00,423.37 396.00,423.59 ZM 500.13 398.84 C498.01,399.48 495.75,400.00 495.13,400.00 C494.28,400.00 494.05,384.91 494.24,341.80 L 494.50 283.61 L 503.71 278.40 C522.78,267.62 539.70,253.65 549.58,240.52 C554.70,233.72 563.00,217.62 563.00,214.48 C563.00,213.67 563.45,213.00 564.00,213.00 C565.30,213.00 565.28,213.21 563.39,220.94 C557.84,243.50 540.46,264.96 513.78,282.21 L 504.05 288.50 L 504.08 309.00 C504.09,320.27 504.08,344.84 504.05,363.59 L 504.00 397.68 ZM 388.31 167.59 C391.69,170.49 394.96,170.66 398.14,168.09 C400.40,166.26 400.52,165.49 401.04,149.84 C401.33,140.85 401.94,132.71 402.39,131.75 C403.14,130.16 402.48,130.00 395.23,130.00 C389.51,130.00 386.91,130.41 386.05,131.44 C385.21,132.45 384.95,137.57 385.18,149.03 L 385.50 165.18 ZM 290.31 167.57 C293.87,170.66 298.33,170.55 302.00,167.28 C302.27,167.04 302.74,159.34 303.02,150.17 C303.31,141.00 303.92,132.71 304.38,131.75 C305.14,130.16 304.48,130.00 297.13,130.00 C296.49,130.00 295.90,129.99 295.35,129.99 C292.62,129.96 290.90,129.94 289.82,130.76 C287.77,132.30 287.95,136.81 287.74,149.82 L 287.50 165.15 ZM 438.30 168.80 C441.34,170.27 441.79,170.23 445.09,168.29 C448.84,166.07 449.43,162.78 448.71,148.14 C448.29,139.52 448.49,135.75 449.52,133.30 L 450.90 130.00 L 443.07 130.00 C438.03,130.00 434.88,130.44 434.22,131.25 C433.62,131.98 433.17,138.57 433.16,146.98 C433.13,162.61 434.11,166.78 438.30,168.80 ZM 305.85 236.50 C300.82,241.72 296.10,246.00 295.37,246.00 C293.38,246.00 281.00,234.00 281.00,232.07 C281.00,229.99 282.91,228.00 284.91,228.00 C285.74,228.00 288.34,229.88 290.69,232.19 L 294.96 236.38 L 302.37 229.19 C306.45,225.23 310.25,222.00 310.82,222.00 C312.11,222.00 315.00,224.82 315.00,226.07 C315.00,226.57 310.88,231.27 305.85,236.50 ZM 313.71 140.37 C314.10,140.76 317.36,140.95 320.96,140.79 C327.27,140.51 327.51,140.40 327.82,137.75 C328.13,135.05 328.03,135.00 322.82,135.01 C319.89,135.02 316.49,135.30 315.25,135.63 C313.09,136.21 312.22,138.89 313.71,140.37 ZM 362.00 138.50 C362.00,140.93 362.20,141.00 369.00,141.00 L 376.00 141.00 L 376.00 134.73 L 371.36 135.36 C368.81,135.71 365.66,136.00 364.36,136.00 C362.51,136.00 362.00,136.54 362.00,138.50 ZM 410.58 140.13 C410.91,140.66 414.17,140.96 417.84,140.79 C424.28,140.51 424.51,140.41 424.82,137.75 C425.11,135.16 424.90,135.00 421.19,135.00 C413.02,135.00 408.70,137.09 410.58,140.13 Z" fill="rgb(16,34,90)"/>
<path d="M 531.40 405.12 C525.84,407.85 519.77,410.32 517.90,410.62 L 514.50 411.16 L 514.24 403.21 L 513.97 395.26 L 523.54 390.51 C555.47,374.66 556.37,350.64 525.58,335.87 L 517.19 331.84 L 516.50 324.98 C516.12,321.21 516.10,317.64 516.46,317.06 C517.65,315.14 521.84,315.94 530.73,319.78 C545.54,326.17 555.21,334.58 561.14,346.22 C565.47,354.71 566.23,365.74 563.08,374.11 C558.15,387.18 548.29,396.83 531.40,405.12 ZM 208.36 319.91 C206.63,320.60 204.31,322.00 203.20,323.03 C201.23,324.86 201.10,324.84 196.38,321.71 C188.69,316.62 181.77,309.00 178.00,301.48 C174.64,294.77 174.50,294.08 174.50,283.50 C174.50,272.64 174.55,272.39 178.64,264.00 C183.84,253.30 193.13,243.03 204.31,235.61 C212.05,230.47 225.62,223.02 227.25,223.00 C227.66,223.00 228.00,227.02 228.00,231.93 L 228.00 240.85 L 218.18 247.29 C200.36,258.96 190.99,271.15 191.01,282.64 C191.03,293.39 197.44,302.81 209.10,309.22 C216.94,313.53 216.72,316.61 208.36,319.91 ZM 290.31 167.57 L 287.50 165.15 L 287.74 149.82 C287.83,144.07 287.85,139.97 288.01,137.06 C288.00,138.03 288.00,139.13 288.00,140.38 C288.00,140.61 288.00,140.84 288.00,141.08 C288.00,148.68 288.09,149.00 290.30,149.00 C293.82,149.00 301.01,143.90 301.57,141.00 C302.04,138.61 303.05,135.33 304.20,132.43 C303.78,134.78 303.28,142.14 303.02,150.17 C302.74,159.34 302.27,167.04 302.00,167.28 C298.33,170.55 293.87,170.66 290.31,167.57 ZM 448.61 145.77 C448.35,144.19 447.80,148.11 446.48,158.83 C445.87,163.80 445.21,165.47 443.42,166.65 C440.87,168.31 437.00,167.07 437.00,164.59 C437.00,163.85 436.30,162.67 435.45,161.96 C434.33,161.03 433.99,159.19 434.20,155.17 C434.49,149.89 434.63,149.64 437.48,149.27 C441.77,148.70 442.91,147.42 447.11,138.50 L 449.33 133.80 C448.56,136.02 448.36,139.32 448.61,145.77 ZM 485.00 379.86 L 484.95 355.73 C484.85,302.25 484.58,289.78 483.51,289.37 C482.99,289.16 481.56,289.48 479.96,290.11 L 484.54 288.04 C493.64,283.93 502.03,279.53 509.70,274.87 C507.73,276.08 505.73,277.26 503.71,278.40 L 494.50 283.61 L 494.24 341.80 C494.06,381.84 494.25,397.71 494.95,399.77 C494.26,397.84 494.00,383.84 494.00,350.00 L 494.00 349.73 C494.00,310.19 494.00,300.31 492.11,299.94 C491.48,299.81 490.64,300.74 489.52,301.97 L 489.50 302.00 C488.50,303.10 487.08,304.00 486.35,304.00 C485.23,304.00 485.00,314.22 485.00,362.85 ZM 253.34 434.25 C255.10,437.08 255.13,437.73 253.43,436.03 C252.89,435.49 251.34,434.89 249.98,434.68 C248.28,434.43 247.39,433.57 247.15,431.96 C246.96,430.66 245.20,427.11 243.24,424.05 C241.59,421.49 240.38,419.44 239.48,417.21 C241.97,422.79 246.36,429.08 247.80,428.53 C248.60,428.22 249.86,428.47 250.60,429.08 C251.03,429.44 252.27,430.11 253.86,430.87 C250.40,429.44 249.18,428.97 249.10,429.13 C249.05,429.22 249.41,429.53 249.94,430.00 L 250.07 430.12 C250.93,430.88 252.41,432.74 253.34,434.25 ZM 263.72 434.97 L 472.50 434.50 L 368.19 434.76 L 263.87 435.03 ZM 450.69 130.49 L 443.35 130.21 C440.24,130.09 437.48,130.22 435.86,130.53 C437.38,130.18 439.84,130.00 443.07,130.00 L 450.90 130.00 ZM 539.43 251.96 C544.73,246.65 549.26,241.13 552.99,235.43 C551.78,237.39 550.62,239.15 549.58,240.52 C546.74,244.30 543.32,248.14 539.43,251.96 ZM 433.16 146.98 C433.16,145.04 433.19,143.20 433.23,141.51 C433.21,143.06 433.20,144.81 433.20,146.79 C433.20,162.63 434.16,166.80 438.30,168.80 C434.11,166.78 433.13,162.60 433.16,146.98 ZM 473.72 301.17 C472.89,308.26 470.21,318.53 466.65,328.60 C470.01,319.02 472.59,309.11 473.72,301.17 ZM 237.50 407.92 C237.07,403.02 237.00,396.27 237.00,385.79 L 237.00 361.90 L 237.01 385.70 C237.01,394.88 237.19,402.81 237.50,407.92 ZM 478.04 290.98 C475.92,292.06 474.90,292.68 474.42,293.72 L 474.50 292.58 ZM 559.30 223.97 C561.36,219.44 563.00,215.26 563.00,214.48 C563.00,215.83 561.46,219.59 559.30,223.97 ZM 448.81 150.28 C449.07,156.23 449.05,160.09 448.61,162.72 C448.89,160.53 448.91,157.37 448.85,152.50 C448.84,151.69 448.82,150.95 448.81,150.28 ZM 290.30 130.47 C291.39,129.95 292.99,129.96 295.35,129.99 C295.88,129.99 296.45,130.00 297.07,130.00 C296.92,130.00 296.77,130.00 296.63,130.00 C293.55,130.00 291.57,130.00 290.30,130.47 ZM 434.45 131.04 C434.24,131.25 434.05,131.65 433.89,132.26 C433.99,131.73 434.10,131.39 434.22,131.25 C434.27,131.18 434.36,131.11 434.45,131.04 Z" fill="rgb(38,134,239)"/>
<path d="M 286.36 448.52 C284.25,449.23 283.20,449.84 284.01,449.90 C284.85,449.95 287.22,450.90 289.28,452.01 C291.34,453.11 296.50,454.49 300.76,455.07 C312.83,456.70 313.36,456.86 312.02,458.47 C310.68,460.09 297.58,464.39 287.50,466.51 C268.56,470.50 241.28,470.71 227.50,466.97 C216.00,463.84 214.71,463.39 209.24,460.62 C206.36,459.16 204.00,458.13 204.00,458.34 C204.00,458.76 210.54,462.73 215.02,465.16 C208.12,462.05 201.88,457.98 195.30,452.41 C187.56,445.88 184.07,441.88 180.57,435.50 C177.72,430.32 178.44,430.97 183.39,438.06 C185.88,441.63 186.65,442.12 189.06,441.64 C190.68,441.31 193.18,441.74 195.02,442.66 C196.76,443.53 200.79,444.55 203.98,444.92 C211.27,445.78 211.36,444.44 204.42,438.30 C201.71,435.92 200.40,434.27 201.50,434.63 C202.60,435.00 204.40,436.07 205.50,437.01 C211.98,442.57 228.24,448.93 241.43,451.05 C250.96,452.59 272.11,451.69 281.00,449.36 C282.29,449.02 283.82,448.75 286.36,448.52 ZM 438.30 168.80 L 438.30 168.80 C434.16,166.80 433.20,162.63 433.20,146.79 C433.20,144.94 433.21,143.28 433.23,141.80 C433.33,142.89 433.46,144.05 433.62,145.25 C434.15,149.14 434.29,149.69 436.39,149.44 C434.58,149.83 434.45,150.67 434.20,155.17 C433.99,159.19 434.33,161.03 435.45,161.96 C436.30,162.67 437.00,163.85 437.00,164.59 C437.00,167.07 440.87,168.31 443.42,166.65 C445.21,165.47 445.87,163.80 446.48,158.83 C447.80,148.11 448.35,144.19 448.61,145.77 C448.64,146.52 448.67,147.31 448.71,148.14 C448.75,148.88 448.78,149.60 448.81,150.28 C448.82,150.95 448.84,151.69 448.85,152.50 C448.91,157.37 448.89,160.53 448.61,162.72 C448.11,165.67 447.06,167.08 445.25,168.19 C445.22,168.21 445.19,168.23 445.16,168.25 C445.13,168.26 445.11,168.27 445.09,168.29 L 445.04 168.32 L 445.04 168.32 C441.79,170.23 441.32,170.26 438.30,168.80 ZM 361.00 152.07 L 361.00 158.50 C361.00,162.62 360.77,166.00 360.49,166.00 C360.20,166.00 358.47,165.01 356.63,163.81 L 353.29 161.62 L 352.67 149.06 C352.53,146.13 352.43,143.87 352.39,142.08 C352.44,143.49 352.52,145.11 352.64,146.93 C353.18,155.09 353.60,156.89 355.22,157.90 C357.70,159.46 359.76,157.91 360.19,154.18 C360.31,153.12 360.41,152.48 361.00,152.07 ZM 353.38 134.77 C353.57,134.45 353.78,134.13 354.03,133.79 C355.11,132.30 356.00,130.84 356.00,130.54 C356.00,130.50 355.98,130.47 355.95,130.43 C356.93,130.73 357.25,131.21 357.50,132.00 C357.85,133.10 358.55,134.00 359.07,134.00 C359.58,134.00 360.00,135.06 360.00,136.36 C360.00,139.53 356.01,139.41 354.41,136.19 C354.01,135.39 353.66,134.91 353.38,134.77 ZM 477.62 446.51 L 476.64 447.00 L 383.57 447.08 ZM 564.89 214.12 C564.98,213.06 564.66,213.00 564.00,213.00 C563.45,213.00 563.00,213.67 563.00,214.48 C563.00,215.83 561.46,219.59 559.30,223.97 L 559.28 224.00 C561.35,219.42 563.00,214.81 563.00,213.54 C563.00,212.21 563.45,210.84 564.00,210.50 C565.09,209.83 565.30,211.35 564.89,214.12 ZM 553.32 244.09 C544.80,257.92 531.51,270.75 513.78,282.21 C531.12,271.00 544.54,258.00 553.32,244.09 ZM 346.92 130.00 C342.41,130.17 337.79,130.61 337.20,131.20 C337.93,130.47 341.48,130.04 346.92,130.00 ZM 489.88 437.81 C492.65,433.77 493.99,428.49 493.99,421.75 C493.99,428.67 492.70,433.86 489.88,437.81 ZM 227.75 469.67 C231.97,470.75 236.69,471.81 240.40,472.47 C236.90,471.88 233.30,471.10 229.43,470.11 C228.87,469.97 228.31,469.82 227.75,469.67 ZM 377.00 150.92 L 377.00 151.00 L 374.70 151.00 ZM 435.63 130.58 C435.71,130.56 435.78,130.54 435.86,130.53 C435.96,130.51 436.06,130.49 436.17,130.47 C435.98,130.51 435.80,130.54 435.63,130.58 ZM 288.00 141.08 C288.00,140.84 288.00,140.61 288.00,140.38 C288.00,140.25 288.00,140.12 288.00,140.00 C288.00,140.34 288.00,140.71 288.00,141.08 Z" fill="rgb(98,43,162)"/>
<path d="M 253.34 434.25 C252.41,432.74 250.93,430.88 250.07,430.12 L 249.94 430.00 C249.41,429.53 249.05,429.22 249.10,429.13 C249.18,428.97 250.40,429.44 253.86,430.87 C255.03,431.43 256.38,432.03 257.72,432.58 L 263.50 434.97 L 263.72 434.97 L 263.87 435.03 L 368.19 434.76 L 467.05 434.51 C465.20,434.67 463.04,434.77 460.50,434.84 C453.90,435.02 448.03,435.57 447.45,436.04 C444.98,438.09 416.91,439.02 358.50,439.00 C324.40,438.98 289.64,438.98 281.25,438.99 C271.89,438.99 266.00,439.38 266.00,439.99 C266.00,441.49 273.06,445.59 277.00,446.37 C278.92,446.75 324.55,447.04 378.39,447.01 C384.43,447.01 390.10,447.01 395.41,447.00 L 383.57 447.08 C309.40,447.14 289.69,447.42 286.50,448.47 C286.45,448.49 286.40,448.50 286.36,448.52 C283.82,448.75 282.29,449.02 281.00,449.36 C277.18,450.36 271.10,451.10 264.65,451.49 C267.59,450.92 267.63,449.83 265.04,448.11 C262.73,446.58 262.23,446.39 258.50,445.70 C256.03,445.25 247.00,434.29 247.00,431.75 C247.00,431.37 246.76,430.64 246.36,429.71 C246.79,430.68 247.08,431.47 247.15,431.96 C247.39,433.57 248.28,434.43 249.98,434.68 C251.34,434.89 252.89,435.49 253.43,436.03 C255.13,437.73 255.10,437.08 253.34,434.25 ZM 484.75 173.12 C484.76,174.13 484.78,175.16 484.80,176.22 C485.01,188.27 485.46,193.66 486.30,194.18 C487.19,194.74 487.55,203.61 487.68,228.56 C487.79,247.06 488.12,262.45 488.43,262.76 C488.63,262.97 487.10,264.17 485.03,265.59 L 484.77 212.39 C484.69,196.90 484.69,182.90 484.75,173.12 ZM 450.69 130.49 L 449.52 133.30 C449.45,133.46 449.39,133.63 449.33,133.80 L 447.11 138.50 C442.91,147.42 441.77,148.70 437.48,149.27 C437.06,149.32 436.70,149.37 436.39,149.44 C434.29,149.69 434.15,149.14 433.62,145.25 C433.46,144.05 433.33,142.89 433.23,141.80 C433.23,141.70 433.23,141.60 433.23,141.51 L 433.23 141.51 C433.35,137.23 433.59,133.89 433.89,132.26 C434.05,131.65 434.24,131.25 434.45,131.04 C434.72,130.87 435.11,130.71 435.63,130.58 C435.80,130.54 435.97,130.51 436.16,130.47 L 436.17 130.47 C436.99,130.34 438.04,130.24 439.26,130.20 C437.14,130.40 435.64,130.76 435.20,131.20 C434.50,131.90 434.05,134.91 434.13,138.45 C434.25,143.71 434.36,144.04 435.00,141.00 C435.41,139.07 435.80,138.18 435.88,139.00 C436.01,140.28 436.16,140.29 436.94,139.07 C437.43,138.28 438.50,137.54 439.30,137.43 C442.37,136.98 445.00,135.83 445.00,134.93 C445.00,134.42 445.88,134.00 446.96,134.00 C448.05,134.00 449.41,133.10 450.00,132.00 C450.41,131.24 450.61,130.77 450.27,130.48 ZM 299.45 144.10 C296.92,146.57 292.73,149.00 290.30,149.00 C288.69,149.00 288.20,148.83 288.06,145.77 L 292.25 145.52 C295.75,145.32 298.02,144.91 299.45,144.10 ZM 249.20 451.73 C246.21,451.61 243.54,451.39 241.43,451.05 C237.60,450.43 233.50,449.46 229.47,448.25 C235.80,449.99 242.59,451.21 249.20,451.73 ZM 477.62 446.51 L 469.51 446.55 C476.26,446.31 478.36,445.92 479.96,445.32 ZM 494.00 420.60 C494.00,420.96 493.99,421.34 493.99,421.75 C493.99,426.08 493.44,429.80 492.31,432.98 C493.11,430.41 493.58,427.38 493.79,423.75 C493.87,422.51 493.93,421.47 494.00,420.60 ZM 475.84 432.12 C477.66,430.82 480.46,427.95 482.09,425.72 C479.57,429.20 477.68,431.32 475.11,432.64 ZM 482.40 267.33 C479.49,269.20 476.46,270.93 475.75,270.96 C475.75,270.96 475.74,270.96 475.74,270.96 C476.38,270.74 478.41,269.67 480.59,268.39 ZM 290.54 130.39 C291.82,130.00 293.74,130.00 296.63,130.00 C296.77,130.00 296.92,130.00 297.07,130.00 C293.93,130.00 291.88,130.00 290.54,130.39 ZM 301.53 141.17 L 301.54 141.13 C301.64,140.61 301.77,140.05 301.91,139.47 C301.78,140.01 301.66,140.52 301.57,141.00 C301.56,141.06 301.55,141.11 301.53,141.17 Z" fill="rgb(85,160,226)"/>
<path d="M 403.80 421.40 C401.61,421.44 399.42,421.75 398.07,422.16 C399.39,421.36 401.22,420.30 403.25,419.18 C412.97,413.82 422.89,406.65 432.09,398.35 C447.07,384.84 456.51,372.04 467.28,350.69 C470.44,344.43 472.10,341.27 473.04,340.12 C472.94,341.68 472.74,344.93 472.55,348.00 C472.16,354.30 465.65,378.95 463.04,384.01 C461.01,387.95 456.80,392.00 454.74,392.00 C453.70,392.00 450.30,394.42 447.18,397.38 C439.40,404.75 428.06,413.16 426.89,412.43 C426.36,412.10 422.23,413.96 417.71,416.57 C410.69,420.62 408.68,421.31 403.80,421.40 ZM 473.72 301.17 C473.12,305.36 472.12,310.11 470.81,315.07 C472.55,308.07 473.46,302.13 472.71,301.37 C472.33,301.00 467.63,302.29 462.26,304.26 C449.63,308.88 437.17,312.78 418.18,318.03 L 402.86 322.27 L 399.84 320.04 C396.32,317.44 390.95,317.87 388.30,320.96 C387.01,322.47 385.76,322.72 381.61,322.29 C378.80,322.00 376.39,321.67 376.26,321.55 C376.05,321.38 383.87,319.41 403.00,314.83 C407.99,313.64 418.09,310.65 425.00,308.33 C427.48,307.50 430.75,306.61 432.28,306.35 C435.77,305.75 453.23,300.07 462.50,296.51 C466.35,295.04 470.85,293.47 472.50,293.03 C473.59,292.74 474.90,292.29 476.40,291.72 L 474.50 292.58 L 474.42 293.72 C474.05,294.52 473.99,295.56 473.98,297.27 C473.97,298.42 473.88,299.73 473.72,301.17 ZM 244.40 358.68 C243.45,359.03 242.34,359.48 241.25,359.97 L 237.00 361.90 L 237.00 370.87 L 234.75 371.50 C224.85,374.28 208.59,385.07 200.67,394.12 C198.14,397.02 195.83,399.17 195.56,398.89 C195.28,398.61 196.21,396.16 197.63,393.44 C200.80,387.39 208.35,379.45 217.00,373.09 C223.21,368.51 238.51,360.52 244.40,358.68 ZM 484.75 173.12 C484.77,170.94 484.78,168.97 484.80,167.24 C485.09,171.88 485.70,176.81 486.29,177.18 C487.10,177.68 487.52,190.02 487.74,220.13 C487.91,243.37 488.26,262.59 488.52,262.85 C488.70,263.03 487.13,264.21 485.03,265.62 L 485.03 265.59 C487.10,264.17 488.63,262.97 488.43,262.76 C488.12,262.45 487.79,247.06 487.68,228.56 C487.55,203.61 487.19,194.74 486.30,194.18 C485.46,193.66 485.01,188.27 484.80,176.22 C484.78,175.16 484.76,174.13 484.75,173.12 ZM 260.68 355.00 C259.35,355.00 256.73,355.29 254.88,355.64 C253.02,356.00 251.83,355.93 252.23,355.50 C253.01,354.65 272.00,348.02 272.00,348.60 C272.00,348.79 269.76,349.91 267.01,351.09 C264.27,352.27 262.27,353.63 262.57,354.12 C262.87,354.60 262.02,355.00 260.68,355.00 ZM 247.11 432.33 C248.12,435.64 256.19,445.28 258.50,445.70 C262.23,446.39 262.73,446.58 265.04,448.11 C267.63,449.83 267.59,450.92 264.65,451.49 L 264.45 451.50 C266.73,451.05 266.61,450.33 263.75,449.43 C258.66,447.85 248.27,436.98 247.11,432.33 ZM 473.85 339.64 C474.05,339.74 474.18,340.12 474.29,340.69 C474.58,342.23 474.76,359.96 474.66,380.08 L 474.50 416.66 L 474.61 379.58 C474.67,359.19 474.38,341.38 473.96,340.00 C473.92,339.87 473.88,339.75 473.85,339.64 ZM 246.87 358.05 L 248.00 357.78 L 248.00 384.14 C248.00,364.77 247.74,358.55 246.87,358.05 ZM 396.00 423.59 C396.00,423.52 396.28,423.31 396.77,422.98 C397.05,423.56 401.36,423.84 413.83,423.94 C403.17,423.87 396.00,423.74 396.00,423.59 ZM 444.56 370.22 C428.16,391.97 405.94,408.64 378.11,420.06 C405.84,408.69 428.15,391.91 444.56,370.22 ZM 539.43 251.96 C536.58,254.76 533.48,257.54 530.17,260.28 C535.36,255.83 540.54,250.86 544.65,246.38 C543.00,248.26 541.26,250.12 539.43,251.96 ZM 511.28 273.89 C510.75,274.22 510.23,274.54 509.70,274.87 C505.00,277.72 500.03,280.48 494.79,283.14 C500.38,280.22 506.15,277.00 511.28,273.89 ZM 237.50 407.92 C237.53,408.31 237.55,408.68 237.58,409.04 C237.10,404.71 237.00,398.98 237.00,390.27 L 237.00 385.79 C237.00,396.27 237.07,403.02 237.50,407.92 ZM 559.81 222.81 C559.64,223.21 559.46,223.60 559.28,224.00 C558.93,224.72 558.56,225.46 558.17,226.20 C558.76,225.04 559.31,223.90 559.81,222.81 ZM 249.20 451.73 C243.01,451.24 236.67,450.14 230.69,448.58 C236.68,450.15 243.05,451.25 249.27,451.73 ZM 249.92 414.35 C248.07,410.04 248.00,402.67 248.00,384.25 C248.00,402.67 248.07,410.05 249.92,414.35 ZM 249.92 414.35 C251.07,417.02 252.90,418.51 255.83,420.72 C252.90,418.51 251.07,417.02 249.92,414.35 Z" fill="rgb(113,137,176)"/>
<path d="M 500.13 398.84 L 503.91 397.71 C503.96,399.39 504.03,400.37 504.11,400.50 C505.19,402.25 505.91,411.69 505.04,412.61 C504.69,412.98 504.30,415.89 504.03,419.73 L 504.24 414.70 L 501.87 415.34 C500.57,415.69 498.26,415.98 496.75,415.99 C494.27,416.00 494.02,416.13 494.00,420.60 C493.93,421.47 493.87,422.51 493.79,423.75 C493.58,427.38 493.11,430.41 492.31,432.98 C491.68,434.76 490.87,436.37 489.88,437.81 C487.99,440.46 485.41,442.56 482.07,444.25 L 479.96 445.32 C478.36,445.92 476.26,446.31 469.51,446.55 L 395.41 447.00 C390.10,447.01 384.43,447.01 378.39,447.01 C324.55,447.04 278.92,446.75 277.00,446.37 C273.06,445.59 266.00,441.49 266.00,439.99 C266.00,439.38 271.89,438.99 281.25,438.99 C289.64,438.98 324.40,438.98 358.50,439.00 C416.91,439.02 444.98,438.09 447.45,436.04 C448.03,435.57 453.90,435.02 460.50,434.84 C463.04,434.77 465.20,434.67 467.05,434.51 L 472.50 434.50 L 475.11 432.64 C477.68,431.32 479.57,429.20 482.09,425.72 L 482.13 425.66 L 485.08 421.59 L 485.00 379.86 L 485.00 362.85 C485.00,314.22 485.23,304.00 486.35,304.00 C487.08,304.00 488.50,303.10 489.50,302.00 L 489.52 301.97 C490.64,300.74 491.48,299.81 492.11,299.94 C494.00,300.31 494.00,310.19 494.00,349.73 L 494.00 350.00 C494.00,383.83 494.26,397.84 494.95,399.77 L 494.95 399.77 C495.01,399.92 495.07,400.00 495.13,400.00 C495.75,400.00 498.01,399.48 500.13,398.84 ZM 491.00 212.02 C491.00,212.65 491.56,212.98 492.25,212.75 C493.18,212.44 493.57,207.36 493.78,192.92 C493.82,190.12 493.85,187.69 493.86,185.56 C493.97,192.38 494.00,202.15 494.00,216.46 C494.00,240.34 494.35,260.10 494.78,260.36 C495.05,260.53 496.06,260.19 497.35,259.54 C495.35,260.66 493.13,261.78 491.64,262.39 C490.14,263.01 487.55,264.34 485.03,265.74 L 485.03 265.62 C487.13,264.21 488.70,263.03 488.52,262.85 C488.26,262.59 487.91,243.37 487.74,220.13 C487.55,194.83 487.23,182.07 486.65,178.35 C487.04,180.20 487.36,183.92 487.45,188.13 C487.74,201.07 489.01,212.11 490.14,211.41 C490.61,211.12 491.00,211.40 491.00,212.02 ZM 504.08 330.00 C504.08,321.51 504.08,313.97 504.08,309.00 L 504.07 304.96 C504.17,310.10 504.53,312.22 505.25,312.45 C505.94,312.66 510.10,313.62 514.50,314.58 C517.29,315.19 519.99,315.90 522.60,316.72 C519.11,315.73 517.20,315.86 516.46,317.06 C516.10,317.64 516.12,321.21 516.50,324.98 L 517.19 331.84 L 525.58 335.87 C538.62,342.12 545.97,350.03 547.70,358.28 C546.68,353.68 543.89,349.13 539.27,344.82 C531.57,337.66 514.82,330.00 506.84,330.00 ZM 290.30 130.47 C290.38,130.44 290.46,130.41 290.54,130.39 C291.88,130.00 293.93,130.00 297.07,130.00 L 297.13 130.00 C304.48,130.00 305.14,130.16 304.38,131.75 C304.32,131.87 304.27,132.10 304.20,132.43 C303.28,134.75 302.45,137.31 301.91,139.47 L 301.91 139.47 C301.77,140.05 301.64,140.61 301.54,141.13 L 301.53 141.17 C301.29,142.04 300.52,143.07 299.45,144.10 C298.02,144.91 295.75,145.32 292.25,145.52 L 288.06 145.77 C288.01,144.64 288.00,143.13 288.00,141.08 L 288.00 140.38 L 288.00 140.00 C288.00,139.84 288.00,139.69 288.00,139.55 L 288.00 139.47 C288.00,138.59 288.00,137.79 288.01,137.06 C288.22,133.40 288.67,131.62 289.82,130.76 C289.96,130.65 290.12,130.55 290.30,130.47 ZM 443.35 130.21 L 450.27 130.48 C450.61,130.77 450.41,131.24 450.00,132.00 C449.41,133.10 448.05,134.00 446.96,134.00 C445.88,134.00 445.00,134.42 445.00,134.93 C445.00,135.83 442.37,136.98 439.30,137.43 C438.50,137.54 437.43,138.28 436.94,139.07 C436.16,140.29 436.01,140.28 435.88,139.00 C435.80,138.18 435.41,139.07 435.00,141.00 C434.36,144.04 434.25,143.71 434.13,138.45 C434.05,134.91 434.50,131.90 435.20,131.20 C435.64,130.76 437.14,130.40 439.26,130.20 C440.49,130.15 441.88,130.15 443.35,130.21 ZM 441.79 373.76 C425.80,393.66 404.69,409.07 378.62,419.85 C404.59,409.11 425.78,393.61 441.79,373.76 ZM 546.35 396.05 C554.46,389.82 559.84,382.70 563.08,374.11 C559.95,382.40 555.44,388.59 548.07,394.70 C547.56,395.13 546.98,395.58 546.35,396.05 ZM 529.51 406.03 C524.67,408.43 520.27,410.24 517.90,410.62 C519.55,410.36 524.53,408.38 529.51,406.03 ZM 526.19 317.93 C530.86,319.62 535.20,321.64 539.18,323.96 C536.57,322.48 533.76,321.09 530.73,319.78 C529.06,319.06 527.55,318.44 526.19,317.93 ZM 503.96 211.95 L 504.00 168.39 L 503.96 211.95 L 503.93 255.50 L 503.34 255.87 L 503.92 255.50 ZM 504.06 295.31 L 504.05 288.50 L 513.78 282.21 C520.08,278.13 525.83,273.88 531.00,269.47 C525.84,273.88 520.10,278.13 513.79,282.21 L 504.08 288.50 ZM 489.68 163.87 C490.78,165.50 491.78,167.29 492.35,168.77 C492.53,169.23 492.69,169.73 492.83,170.33 C492.70,169.87 492.56,169.43 492.40,169.00 C491.82,167.43 490.80,165.56 489.68,163.87 ZM 501.15 438.80 C499.79,441.40 498.13,443.81 496.24,445.96 C498.13,443.81 499.79,441.40 501.15,438.80 C502.10,436.97 502.71,435.20 503.12,432.71 C502.72,435.22 502.12,436.94 501.15,438.80 ZM 484.95 169.26 C484.90,168.59 484.85,167.91 484.80,167.24 L 484.81 167.08 C484.85,167.80 484.90,168.54 484.95,169.26 ZM 475.77 270.96 C475.70,270.99 475.65,271.00 475.62,271.00 C475.62,271.00 475.61,271.00 475.61,271.00 C475.64,270.99 475.69,270.98 475.74,270.96 C475.74,270.96 475.75,270.96 475.75,270.96 C475.76,270.96 475.76,270.96 475.77,270.96 Z" fill="rgb(114,191,246)"/>
<path d="M 403.80 421.40 C408.68,421.31 410.69,420.62 417.71,416.57 C422.23,413.96 426.36,412.10 426.89,412.43 C428.06,413.16 439.40,404.75 447.18,397.38 C450.30,394.42 453.70,392.00 454.74,392.00 C456.27,392.00 459.00,389.75 461.13,386.98 C455.49,395.90 448.05,403.62 445.31,402.80 C444.11,402.44 434.98,408.01 431.23,411.40 C428.80,413.60 428.29,414.58 429.23,415.21 C431.41,416.69 438.06,415.07 446.94,410.91 C460.52,404.55 464.73,399.35 467.62,385.39 C469.67,375.48 468.25,373.57 464.46,381.13 C464.19,381.67 463.90,382.21 463.61,382.75 C466.49,375.76 472.19,353.88 472.55,348.00 C472.74,344.93 472.94,341.68 473.04,340.12 C473.40,339.67 473.66,339.53 473.85,339.64 C473.88,339.75 473.92,339.87 473.96,340.00 C474.38,341.38 474.67,359.19 474.61,379.58 L 474.50 416.66 L 471.70 420.33 L 468.90 424.00 L 432.45 424.00 C425.66,424.00 419.29,423.98 413.83,423.94 C401.36,423.84 397.05,423.56 396.77,422.98 C397.11,422.76 397.55,422.48 398.07,422.16 C399.42,421.75 401.61,421.44 403.80,421.40 ZM 246.87 358.05 C246.83,358.03 246.79,358.02 246.75,358.02 C246.51,358.03 246.04,358.14 245.43,358.33 C248.24,357.21 250.91,356.05 251.97,355.46 C253.36,354.70 259.23,352.50 265.00,350.59 C270.77,348.68 278.65,345.96 282.50,344.55 C286.34,343.15 290.48,342.00 291.69,342.00 C292.89,342.00 294.13,341.60 294.43,341.11 C294.74,340.61 296.68,339.98 298.74,339.71 C300.81,339.43 304.30,338.67 306.50,338.03 C308.70,337.38 312.30,336.47 314.50,336.02 C316.70,335.56 323.90,333.78 330.50,332.06 C348.52,327.37 355.55,325.84 367.42,324.02 C371.23,323.44 374.83,322.57 375.42,322.10 C375.58,321.98 375.92,321.82 376.46,321.62 C377.12,321.76 379.22,322.04 381.61,322.29 C385.76,322.72 387.01,322.47 388.30,320.96 C390.95,317.87 396.32,317.44 399.84,320.04 L 402.75 322.19 C393.25,324.69 383.40,327.14 373.50,329.46 C309.34,344.54 270.89,355.39 272.49,357.99 C272.81,358.50 271.81,359.69 270.28,360.64 C268.75,361.59 264.37,364.41 260.54,366.90 C252.16,372.36 249.75,372.69 248.88,368.50 C248.54,366.85 248.20,375.62 248.13,388.00 C248.09,395.38 248.09,400.75 248.28,404.79 C248.02,400.09 248.00,393.59 248.00,384.25 L 248.00 384.14 L 248.00 357.78 ZM 484.95 169.26 C484.90,168.54 484.85,167.80 484.81,167.08 C484.87,161.96 484.95,159.00 485.06,159.00 C485.92,159.00 487.92,161.24 489.68,163.87 C490.80,165.56 491.82,167.43 492.40,169.00 C492.56,169.43 492.70,169.87 492.83,170.33 C493.41,172.70 493.71,176.55 493.86,185.56 C493.85,187.69 493.82,190.12 493.78,192.92 C493.77,193.85 493.75,194.74 493.74,195.59 C493.42,187.03 492.71,177.52 492.28,178.76 C492.03,179.45 491.48,179.80 491.06,179.53 C490.03,178.90 489.02,190.15 489.01,202.31 C489.00,206.03 489.13,208.71 489.36,210.19 C488.48,207.00 487.67,198.13 487.45,188.13 C487.36,183.92 487.04,180.20 486.65,178.35 C486.54,177.64 486.42,177.26 486.29,177.18 C485.79,176.87 485.27,173.21 484.95,169.26 ZM 394.30 357.37 C393.95,357.72 391.57,358.00 389.00,358.00 C385.52,358.00 384.33,357.62 384.33,356.50 C384.33,355.67 384.82,354.99 385.42,354.98 C386.01,354.98 385.83,354.53 385.00,354.00 C383.91,353.30 384.80,353.03 388.21,353.02 C391.81,353.00 393.17,353.45 393.93,354.87 C394.48,355.90 394.65,357.02 394.30,357.37 ZM 302.23 356.00 L 304.38 358.00 L 296.94 357.94 C291.46,357.89 290.09,357.63 291.75,356.97 C292.99,356.47 294.00,355.60 294.00,355.03 C294.00,353.22 300.00,353.93 302.23,356.00 ZM 260.68 355.00 C262.02,355.00 262.87,354.60 262.57,354.12 C262.27,353.63 264.27,352.27 267.01,351.09 C269.76,349.91 272.00,348.79 272.00,348.60 C272.00,348.02 253.01,354.65 252.23,355.50 C251.83,355.93 253.02,356.00 254.88,355.64 C256.73,355.29 259.35,355.00 260.68,355.00 ZM 310.64 263.50 C309.82,264.33 307.65,264.99 305.82,264.98 C303.51,264.97 302.92,264.70 303.90,264.09 C305.02,263.38 304.92,263.11 303.40,262.72 C302.35,262.45 303.89,262.18 306.82,262.12 C311.55,262.01 311.98,262.17 310.64,263.50 ZM 238.09 361.26 C232.96,363.63 226.54,367.04 221.66,370.01 C226.77,366.73 232.33,363.75 238.09,361.26 ZM 212.29 376.79 C205.87,382.19 200.51,388.18 197.85,393.03 C200.76,387.67 205.85,382.05 212.29,376.79 ZM 403.00 314.82 C405.79,314.16 410.19,312.93 414.76,311.56 C410.21,312.93 405.80,314.16 403.00,314.83 C397.26,316.21 392.54,317.35 388.74,318.27 C392.54,317.33 397.24,316.19 403.00,314.82 ZM 255.83 420.72 C253.20,418.73 251.45,417.33 250.29,415.13 C251.45,417.28 253.20,418.73 255.83,420.72 Z" fill="rgb(141,175,207)"/>
<path d="M 212.29 376.79 C205.85,382.05 200.76,387.67 197.86,393.03 L 197.85 393.03 C197.78,393.17 197.71,393.31 197.63,393.44 C196.21,396.16 195.28,398.61 195.56,398.89 C195.83,399.17 198.14,397.02 200.67,394.12 C201.33,393.37 202.04,392.61 202.81,391.84 C198.98,395.82 196.08,399.87 194.23,403.87 C192.15,408.36 191.84,410.18 192.33,414.91 C193.17,422.91 195.39,427.54 201.05,433.05 C205.04,436.93 210.09,440.36 215.99,443.22 C211.60,441.21 207.88,439.06 205.50,437.01 C204.40,436.07 202.60,435.00 201.50,434.63 C200.40,434.27 201.71,435.92 204.42,438.30 C211.36,444.44 211.27,445.78 203.98,444.92 C200.79,444.55 196.76,443.53 195.02,442.66 C193.18,441.74 190.68,441.31 189.06,441.64 C186.65,442.12 185.88,441.63 183.39,438.06 C178.44,430.97 177.72,430.32 180.57,435.50 C181.42,437.06 182.28,438.47 183.19,439.82 C178.78,433.80 175.99,427.44 174.44,420.12 C171.78,407.60 173.14,398.43 179.59,385.20 C182.75,378.75 194.53,364.20 195.68,365.35 C195.90,365.57 194.97,367.82 193.62,370.37 L 191.17 374.99 L 193.45 376.78 C194.70,377.77 196.04,379.55 196.42,380.74 C197.29,383.50 200.98,384.78 202.13,382.73 C202.60,381.90 204.14,380.93 205.55,380.58 C206.97,380.22 210.95,377.72 214.39,375.01 C217.21,372.80 220.76,370.44 224.62,368.18 C223.62,368.78 222.63,369.39 221.66,370.01 C219.84,371.12 218.24,372.17 217.00,373.09 C215.39,374.27 213.81,375.52 212.29,376.79 ZM 543.35 179.82 C544.36,181.64 545.02,183.31 544.80,183.53 C544.59,183.74 543.55,182.32 542.49,180.35 C539.03,173.93 530.48,166.45 520.98,161.55 C516.04,158.99 512.00,156.45 512.00,155.89 C512.00,155.34 512.34,155.09 512.75,155.34 C513.77,155.96 515.54,153.84 515.52,152.01 C515.51,151.20 514.60,150.36 513.50,150.15 C511.29,149.73 510.04,148.26 510.02,146.05 C510.00,144.92 510.27,144.87 511.20,145.80 C511.86,146.46 513.62,147.00 515.12,147.00 C519.25,147.00 521.00,147.99 521.02,150.36 C521.03,152.91 522.03,154.46 523.75,154.60 C524.44,154.65 525.90,154.77 527.00,154.85 C529.30,155.02 529.77,158.00 527.50,158.00 C524.69,158.00 526.00,160.49 530.01,162.78 C532.20,164.03 534.00,165.73 534.00,166.55 C534.00,167.37 535.69,169.95 537.75,172.27 C539.81,174.60 542.33,177.99 543.35,179.82 ZM 388.31 167.59 L 385.50 165.18 L 385.18 149.03 C385.11,145.46 385.09,142.51 385.11,140.11 C385.16,141.79 385.24,143.79 385.36,146.15 C385.72,153.34 386.27,159.62 386.57,160.11 C387.45,161.54 388.50,161.16 391.00,158.50 C392.29,157.12 393.92,156.00 394.62,156.00 C395.32,156.00 397.01,154.97 398.37,153.71 C400.58,151.66 400.89,150.46 401.21,142.46 C401.41,137.53 401.94,132.71 402.39,131.75 C401.94,132.71 401.33,140.85 401.04,149.84 C400.52,165.49 400.40,166.26 398.14,168.09 C394.96,170.66 391.69,170.49 388.31,167.59 ZM 233.07 319.96 C229.68,321.78 227.93,321.00 229.77,318.50 C230.73,317.18 235.00,316.75 235.00,317.98 C235.00,318.50 234.13,319.40 233.07,319.96 ZM 509.00 138.00 C510.12,138.73 509.62,138.97 507.00,138.97 C505.08,138.97 502.83,138.53 502.00,138.00 C500.88,137.27 501.38,137.03 504.00,137.03 C505.92,137.03 508.17,137.47 509.00,138.00 ZM 218.87 379.23 C224.56,375.62 230.29,372.75 234.75,371.50 C231.23,372.49 224.64,375.76 218.87,379.23 ZM 265.97 450.91 C265.80,450.41 264.86,449.78 263.75,449.43 C265.57,450.00 266.28,450.50 265.97,450.91 ZM 246.88 451.51 C248.70,451.64 250.60,451.74 252.47,451.81 C251.37,451.79 250.30,451.77 249.27,451.73 C248.47,451.67 247.68,451.60 246.88,451.51 ZM 386.02 131.48 C386.03,131.46 386.04,131.45 386.05,131.44 C386.33,131.10 386.79,130.84 387.48,130.63 C386.80,130.84 386.34,131.12 386.02,131.48 ZM 248.28 404.77 L 248.27 404.67 C248.21,403.21 248.16,401.57 248.14,399.73 C248.16,401.62 248.21,403.30 248.28,404.79 C248.28,404.78 248.28,404.78 248.28,404.77 ZM 211.82 463.62 C212.87,464.16 213.94,464.67 215.02,465.16 L 215.04 465.17 C213.95,464.68 212.88,464.17 211.82,463.62 Z" fill="rgb(154,38,176)"/>
<path d="M 467.95 141.80 L 470.12 142.45 C475.49,144.06 476.25,144.09 477.79,142.70 C481.73,139.15 490.28,136.71 498.65,136.75 C500.66,136.76 502.68,136.87 504.38,137.04 C504.25,137.03 504.13,137.03 504.00,137.03 C501.38,137.03 500.88,137.27 502.00,138.00 C502.83,138.53 505.08,138.97 507.00,138.97 C508.98,138.97 509.75,138.83 509.53,138.45 C509.96,138.86 509.31,138.95 507.25,138.97 C503.28,139.01 503.03,140.62 506.75,142.26 C508.26,142.92 510.09,144.26 510.81,145.23 C511.39,146.02 512.74,146.70 514.07,146.92 C512.88,146.75 511.71,146.31 511.20,145.80 C510.27,144.87 510.00,144.92 510.02,146.05 C510.04,148.26 511.29,149.73 513.50,150.15 C514.60,150.36 515.51,151.20 515.52,152.01 C515.54,153.84 513.77,155.96 512.75,155.34 C512.34,155.09 512.00,155.34 512.00,155.89 C512.00,156.45 516.04,158.99 520.98,161.55 C522.05,162.10 523.10,162.68 524.13,163.29 C523.15,162.72 522.14,162.17 521.09,161.64 C512.94,157.46 502.07,154.00 497.10,154.00 C495.28,154.00 494.92,154.00 496.24,155.66 C495.93,155.30 495.62,154.96 495.33,154.66 C491.69,150.91 479.52,144.00 476.56,144.00 C475.75,144.00 472.62,143.24 469.62,142.32 ZM 208.36 319.91 C216.18,316.82 216.87,313.93 210.53,310.04 C214.06,311.91 217.93,313.41 222.00,314.47 C225.57,315.40 229.27,316.56 230.21,317.06 C230.61,317.27 231.12,317.42 231.64,317.48 C230.83,317.70 230.10,318.04 229.77,318.50 C228.83,319.78 228.82,320.61 229.50,320.87 C227.47,321.43 224.64,322.22 221.94,322.96 C211.41,325.87 206.34,326.59 200.94,324.25 C201.74,324.35 202.26,323.90 203.20,323.03 C204.31,322.00 206.63,320.60 208.36,319.91 ZM 497.12 156.72 C497.26,156.88 497.41,157.06 497.57,157.25 C498.89,158.82 499.94,160.04 500.78,161.39 C501.45,162.48 501.98,163.66 502.40,165.18 L 501.53 163.45 C500.54,161.46 498.79,158.82 497.12,156.72 ZM 207.00 308.00 C200.38,303.92 195.68,298.79 193.16,292.97 C193.23,293.15 193.32,293.33 193.40,293.50 C196.03,299.04 200.86,304.08 207.00,308.00 ZM 190.53 317.23 C186.12,313.54 182.62,309.42 179.56,304.29 C182.33,308.90 186.17,313.41 190.53,317.23 ZM 536.12 172.33 C538.88,175.01 541.10,177.77 542.49,180.35 C542.57,180.50 542.65,180.65 542.73,180.79 C542.51,180.45 542.27,180.09 542.03,179.71 C540.36,177.08 538.39,174.62 536.12,172.33 ZM 191.23 279.54 C192.24,272.41 196.77,265.06 204.59,257.76 C196.82,265.02 192.34,272.33 191.23,279.54 ZM 178.90 303.17 C178.24,302.00 177.59,300.78 176.96,299.50 C176.03,297.61 175.44,296.17 175.08,294.37 C175.56,296.51 176.42,298.33 178.00,301.48 C178.28,302.04 178.58,302.61 178.90,303.17 ZM 234.91 317.69 C234.72,317.45 234.29,317.31 233.75,317.27 C234.63,316.96 234.99,317.09 234.91,317.69 ZM 544.78 183.55 C544.79,183.54 544.80,183.54 544.80,183.53 C545.00,183.33 544.47,181.91 543.59,180.27 C544.46,181.77 545.00,182.98 545.00,183.60 C545.00,183.71 544.92,183.68 544.78,183.55 Z" fill="rgb(136,45,213)"/>
<path d="M 444.56 370.22 L 444.56 370.22 C443.65,371.41 442.73,372.59 441.79,373.76 L 441.79 373.76 C440.60,375.24 439.38,376.69 438.13,378.12 C422.59,395.89 402.66,409.91 378.62,419.85 C378.54,419.88 378.45,419.92 378.37,419.95 C378.28,419.99 378.19,420.03 378.11,420.06 L 378.10 420.06 L 368.50 424.00 L 314.33 424.00 L 286.97 424.00 C309.12,424.00 313.88,423.75 314.33,422.59 C314.62,421.81 317.49,420.44 320.68,419.53 C330.08,416.87 347.09,411.35 352.66,409.14 C368.90,402.72 397.08,386.45 407.50,377.50 C423.39,363.85 427.36,359.01 433.17,346.25 C434.74,342.81 437.34,337.86 438.94,335.25 C442.50,329.44 447.47,318.14 446.77,317.44 C446.49,317.15 439.06,318.95 430.26,321.43 C415.95,325.46 405.23,328.16 361.00,338.91 C354.12,340.58 346.39,342.60 343.82,343.40 C338.78,344.98 336.98,344.22 337.54,340.75 C337.72,339.61 337.18,339.00 335.97,339.00 C334.46,339.00 323.10,341.76 312.01,344.67 C328.22,340.37 348.98,335.22 373.50,329.46 C383.40,327.14 393.25,324.69 402.75,322.19 L 402.86 322.27 L 418.18 318.03 C437.17,312.78 449.63,308.88 462.26,304.26 C467.63,302.29 472.33,301.00 472.71,301.37 C473.46,302.13 472.55,308.07 470.81,315.07 C469.65,319.49 468.24,324.08 466.65,328.60 L 466.65 328.60 C464.80,333.83 462.71,339.01 460.52,343.66 C456.02,353.22 450.70,362.07 444.56,370.22 ZM 475.52 270.83 C472.03,272.56 468.61,274.00 467.84,274.00 C467.36,274.00 464.85,274.94 462.24,276.08 C461.55,276.39 460.89,276.67 460.29,276.94 C453.39,279.97 451.71,280.71 451.14,280.20 C450.91,279.99 450.86,279.58 450.72,279.02 C450.45,278.00 450.74,276.29 451.37,275.22 C461.57,257.73 467.03,239.29 470.53,210.50 C471.47,202.80 472.41,196.31 472.62,196.08 C472.83,195.85 473.00,204.07 473.00,214.33 C473.00,226.11 473.37,233.00 474.00,233.00 C474.56,233.00 474.88,222.69 474.98,210.07 C474.99,213.16 474.99,216.39 474.99,219.75 C475.00,246.51 475.23,268.66 475.52,270.83 ZM 302.23 356.00 C300.00,353.93 294.00,353.22 294.00,355.03 C294.00,355.60 292.99,356.47 291.75,356.97 C291.18,357.20 290.97,357.38 291.16,357.52 C287.58,357.27 286.45,356.91 285.85,356.36 C284.61,355.24 283.64,355.03 282.77,355.70 C282.07,356.24 278.62,357.73 275.11,359.01 C267.74,361.71 260.40,366.48 254.07,372.69 C250.86,375.83 249.42,376.68 248.83,375.77 C248.58,375.36 248.35,377.72 248.20,381.71 C248.33,372.80 248.60,367.15 248.88,368.50 C249.75,372.69 252.16,372.36 260.54,366.90 C264.37,364.41 268.75,361.59 270.28,360.64 C271.81,359.69 272.81,358.50 272.49,357.99 C271.71,356.72 280.43,353.50 296.99,348.79 C294.97,349.38 293.26,349.90 292.00,350.31 L 284.50 352.80 L 338.71 352.90 C364.12,352.95 377.66,352.99 384.97,353.23 C384.41,353.39 384.44,353.64 385.00,354.00 C385.83,354.53 386.01,354.98 385.42,354.98 C384.82,354.99 384.33,355.67 384.33,356.50 C384.33,357.09 384.67,357.48 385.49,357.71 C375.86,357.88 359.28,358.00 340.66,358.00 C323.84,358.00 312.26,357.98 304.26,357.89 ZM 439.27 265.75 C438.93,266.73 427.19,267.00 385.12,267.00 C330.61,267.00 328.35,266.85 329.69,263.38 C330.13,262.23 339.30,262.00 384.50,262.00 C440.36,262.00 440.57,262.01 439.27,265.75 ZM 367.43 389.12 C362.53,390.30 349.04,390.52 314.50,390.00 C282.75,389.52 281.50,389.43 281.50,387.57 C281.50,386.29 282.47,385.38 284.39,384.87 C289.38,383.54 366.42,383.62 368.93,384.96 C371.76,386.48 371.13,388.22 367.43,389.12 ZM 439.50 231.50 C439.50,233.47 438.75,233.50 384.86,233.76 C339.75,233.97 330.13,233.78 329.70,232.67 C328.31,229.04 329.40,228.98 385.06,229.24 C438.75,229.50 439.50,229.53 439.50,231.50 ZM 445.31 402.80 C448.05,403.62 455.49,395.90 461.13,386.98 C461.86,386.03 462.52,385.01 463.04,384.01 C463.22,383.67 463.41,383.25 463.61,382.75 C463.90,382.21 464.19,381.67 464.46,381.13 C468.25,373.57 469.67,375.48 467.62,385.39 C464.73,399.35 460.52,404.55 446.94,410.91 C438.06,415.07 431.41,416.69 429.23,415.21 C428.29,414.58 428.80,413.60 431.23,411.40 C434.98,408.01 444.11,402.44 445.31,402.80 ZM 504.54 414.61 C504.71,413.50 504.88,412.78 505.04,412.61 C505.91,411.69 505.19,402.25 504.11,400.50 C504.03,400.37 503.96,399.39 503.91,397.71 L 504.00 397.68 L 504.00 396.00 L 506.75 396.00 C512.43,395.99 523.66,391.09 532.22,385.50 C529.64,387.24 526.74,388.92 523.54,390.51 L 513.97 395.26 L 514.24 403.21 L 514.50 411.14 C513.17,411.43 512.18,411.78 512.00,412.06 C511.72,412.47 509.92,413.22 508.00,413.72 ZM 491.00 212.02 C491.00,211.40 490.61,211.12 490.14,211.41 C489.89,211.57 489.62,211.12 489.36,210.19 C489.13,208.71 489.00,206.03 489.01,202.31 C489.02,190.15 490.03,178.90 491.06,179.53 C491.48,179.80 492.03,179.45 492.28,178.76 C492.71,177.52 493.42,187.03 493.74,195.59 C493.52,207.99 493.12,212.46 492.25,212.75 C491.56,212.98 491.00,212.65 491.00,212.02 ZM 310.64 263.50 C310.95,263.20 311.16,262.95 311.25,262.76 C313.32,263.05 313.50,263.55 313.50,264.50 C313.50,266.41 312.77,266.51 297.82,266.69 C286.49,266.83 281.86,266.54 281.13,265.66 C278.68,262.70 281.47,262.13 297.52,262.32 C299.77,262.34 301.70,262.37 303.36,262.39 C302.98,262.49 302.96,262.61 303.40,262.72 C304.92,263.11 305.02,263.38 303.90,264.09 C302.92,264.70 303.51,264.97 305.82,264.98 C307.65,264.99 309.82,264.33 310.64,263.50 ZM 408.00 358.20 C408.00,360.27 407.73,360.29 403.00,358.59 C398.18,356.85 397.70,354.00 402.23,354.00 C405.97,354.00 408.00,355.48 408.00,358.20 ZM 325.57 313.18 C324.51,313.79 319.34,314.44 314.07,314.61 L 304.50 314.92 L 313.00 313.55 C317.67,312.79 322.85,312.15 324.50,312.12 C327.18,312.07 327.30,312.18 325.57,313.18 ZM 503.26 431.75 C503.52,429.86 503.68,427.57 503.81,424.60 L 504.03 419.73 C504.15,417.93 504.31,416.32 504.47,415.10 L 503.93 424.56 C503.76,427.50 503.55,429.82 503.26,431.75 ZM 503.97 205.22 C503.97,207.37 503.97,209.62 503.97,212.00 L 503.99 255.50 L 502.83 256.19 L 503.34 255.87 L 503.34 255.87 L 503.93 255.50 L 503.96 211.95 ZM 491.74 262.35 C490.99,262.74 490.23,263.14 489.50,263.51 C487.82,264.38 486.07,265.29 484.44,266.14 L 485.03 265.79 L 485.03 265.74 C487.55,264.34 490.14,263.01 491.64,262.39 C491.67,262.38 491.70,262.37 491.74,262.35 ZM 548.09 362.52 C548.16,356.41 545.22,350.37 539.28,344.83 C543.90,349.14 546.68,353.68 547.70,358.28 C547.99,359.69 548.12,361.10 548.09,362.52 ZM 255.83 420.72 C253.20,418.73 251.45,417.28 250.29,415.13 C250.16,414.88 250.04,414.62 249.92,414.35 C249.88,414.24 249.83,414.14 249.79,414.03 C250.93,416.73 252.80,418.43 255.83,420.72 ZM 546.35 396.05 C546.97,395.59 547.55,395.14 548.07,394.71 C547.45,395.22 546.77,395.75 546.03,396.29 C546.14,396.21 546.24,396.13 546.35,396.05 Z" fill="rgb(195,209,223)"/>
<path d="M 403.00 314.82 C397.25,316.19 392.54,317.33 388.75,318.27 L 388.74 318.27 C379.90,320.43 376.11,321.43 376.26,321.55 C376.28,321.57 376.35,321.59 376.46,321.62 C375.92,321.82 375.58,321.98 375.42,322.10 C374.83,322.57 371.23,323.44 367.42,324.02 C361.30,324.96 356.47,325.82 350.75,327.08 L 351.00 327.01 C352.92,326.50 356.19,325.82 358.25,325.50 C360.31,325.17 362.00,324.48 362.00,323.95 C362.00,323.43 362.81,323.00 363.80,323.00 C366.48,323.00 374.38,317.68 376.85,314.21 C378.36,312.09 379.00,309.71 379.00,306.22 L 379.00 301.24 L 385.75 299.57 C389.46,298.66 400.54,295.65 410.36,292.90 C420.19,290.15 428.44,288.11 428.70,288.37 C429.72,289.39 427.91,292.57 425.76,293.52 C424.27,294.18 423.62,295.20 423.85,296.51 C424.04,297.60 424.31,299.80 424.44,301.38 C424.73,304.83 428.10,306.97 432.22,306.32 C434.05,306.03 439.79,304.31 446.21,302.21 C439.85,304.30 434.12,306.03 432.28,306.35 C430.75,306.61 427.48,307.50 425.00,308.33 C421.93,309.36 418.23,310.53 414.63,311.60 C410.11,312.95 405.76,314.17 403.00,314.82 ZM 228.57 365.91 C227.23,366.65 225.91,367.40 224.62,368.18 C220.76,370.44 217.21,372.80 214.39,375.01 C210.95,377.72 206.97,380.22 205.55,380.58 C204.14,380.93 202.60,381.90 202.13,382.73 C200.98,384.78 197.29,383.50 196.42,380.74 C196.04,379.55 194.70,377.77 193.45,376.78 L 191.17 374.99 L 193.62 370.37 C194.97,367.82 195.90,365.57 195.68,365.35 C195.58,365.25 195.41,365.26 195.18,365.38 C197.55,363.14 200.02,361.06 202.50,359.22 C208.09,355.08 208.52,354.92 208.82,356.92 C209.00,358.10 208.17,361.09 206.97,363.56 C203.18,371.38 206.46,376.33 213.78,373.85 C215.83,373.15 218.18,372.04 219.00,371.37 C220.30,370.32 224.16,368.17 228.57,365.91 ZM 393.30 154.90 C393.98,155.58 394.50,155.94 395.11,155.90 C394.92,155.96 394.75,156.00 394.62,156.00 C393.92,156.00 392.29,157.12 391.00,158.50 C388.50,161.16 387.45,161.54 386.57,160.11 C386.27,159.62 385.72,153.34 385.36,146.15 C385.24,143.79 385.16,141.79 385.11,140.11 C385.12,139.23 385.14,138.42 385.16,137.68 C385.15,138.73 385.16,139.89 385.21,141.15 C385.52,150.16 386.08,150.82 391.66,148.87 C393.65,148.18 393.76,148.34 393.01,150.96 C392.50,152.76 392.60,154.20 393.30,154.90 ZM 402.13 132.70 C401.75,134.56 401.37,138.47 401.21,142.46 C401.14,144.24 401.07,145.69 400.97,146.88 C400.81,145.80 400.31,144.95 399.43,144.61 C398.32,144.19 398.07,143.35 398.57,141.75 C398.95,140.51 399.59,139.27 399.99,139.00 C400.38,138.73 400.94,137.38 401.22,136.00 C401.43,134.99 401.79,133.70 402.13,132.70 ZM 188.03 372.87 C184.68,377.04 181.18,382.00 179.63,385.12 C181.49,381.34 184.46,377.06 188.03,372.87 ZM 400.28 151.04 C399.91,152.07 399.38,152.75 398.57,153.52 C399.30,152.81 399.87,151.95 400.28,151.04 ZM 385.74 132.08 C385.83,131.81 385.92,131.61 386.02,131.48 L 386.04 131.46 C385.93,131.61 385.83,131.82 385.74,132.08 Z" fill="rgb(207,51,157)"/>
<path d="M 559.81 222.81 C559.31,223.90 558.76,225.04 558.17,226.20 C556.57,229.31 554.74,232.58 552.99,235.43 C550.55,239.16 547.76,242.81 544.65,246.38 C543.44,247.70 542.14,249.06 540.77,250.43 L 538.38 249.70 C536.80,249.22 532.17,248.67 528.10,248.48 C523.44,248.26 520.18,247.60 519.28,246.71 C518.05,245.48 518.54,244.74 522.90,241.27 C525.68,239.05 529.59,235.28 531.59,232.87 C533.59,230.47 535.85,228.14 536.61,227.70 C537.38,227.26 538.00,226.25 538.00,225.45 C538.00,224.65 538.42,224.00 538.93,224.00 C539.45,224.00 540.18,223.01 540.56,221.80 C540.95,220.58 541.88,218.98 542.63,218.23 C543.86,217.00 544.45,214.83 544.12,212.75 C544.05,212.34 544.39,212.00 544.86,212.00 C545.34,212.00 546.30,209.31 547.00,206.01 C549.81,192.74 544.72,179.73 533.38,169.84 C534.34,170.66 535.25,171.49 536.12,172.33 C538.39,174.62 540.36,177.08 542.03,179.71 C542.27,180.09 542.51,180.45 542.73,180.79 C543.66,182.45 544.53,183.63 544.78,183.55 C544.92,183.68 545.00,183.71 545.00,183.60 C545.00,182.98 544.46,181.77 543.59,180.27 C543.51,180.12 543.43,179.97 543.35,179.82 C542.33,177.99 539.81,174.60 537.75,172.27 C535.69,169.95 534.00,167.37 534.00,166.55 C534.00,165.73 532.20,164.03 530.01,162.78 C526.00,160.49 524.69,158.00 527.50,158.00 C529.77,158.00 529.30,155.02 527.00,154.85 C525.90,154.77 524.44,154.65 523.75,154.60 C522.03,154.46 521.03,152.91 521.02,150.36 C521.00,147.99 519.25,147.00 515.12,147.00 C514.78,147.00 514.42,146.97 514.07,146.92 C512.74,146.70 511.39,146.02 510.81,145.23 C510.09,144.26 508.26,142.92 506.75,142.26 C503.03,140.62 503.28,139.01 507.25,138.97 C509.31,138.95 509.96,138.86 509.53,138.45 C509.45,138.33 509.27,138.18 509.00,138.00 C508.72,137.82 508.27,137.65 507.73,137.50 C509.97,137.88 511.62,138.36 511.96,138.86 C512.26,139.30 515.88,140.52 520.00,141.55 C524.12,142.59 527.72,143.74 528.00,144.10 C528.28,144.47 530.75,145.81 533.50,147.09 C536.25,148.36 539.09,150.21 539.81,151.20 C540.53,152.19 541.62,153.00 542.23,153.00 C543.48,153.00 550.16,159.78 554.08,165.04 C562.15,175.85 565.34,185.81 564.96,199.00 C564.83,203.45 564.79,208.51 564.86,210.60 C564.68,210.30 564.40,210.25 564.00,210.50 C563.45,210.84 563.00,212.21 563.00,213.54 C563.00,214.70 561.63,218.65 559.81,222.81 ZM 482.40 267.33 L 483.03 266.96 C481.05,268.44 480.30,269.72 480.88,270.75 C482.51,273.67 479.98,277.41 472.92,282.50 C469.12,285.25 463.43,290.09 460.28,293.25 C457.14,296.41 454.82,299.00 455.13,299.00 C455.45,299.00 458.81,297.84 462.60,296.42 C466.40,294.99 470.85,293.47 472.50,293.03 C473.68,292.71 475.59,292.00 477.94,291.03 L 476.40 291.72 C474.90,292.29 473.59,292.74 472.50,293.03 C470.85,293.47 466.35,295.04 462.50,296.51 C458.12,298.19 451.91,300.35 446.21,302.21 C439.79,304.31 434.05,306.03 432.22,306.32 C428.10,306.97 424.73,304.83 424.44,301.38 C424.31,299.80 424.04,297.60 423.85,296.51 C423.62,295.20 424.27,294.18 425.76,293.52 C427.91,292.57 429.72,289.39 428.70,288.37 C428.59,288.26 426.98,288.57 424.39,289.20 C427.69,288.34 430.12,287.75 431.00,287.60 C432.92,287.26 435.79,286.32 437.36,285.49 C438.94,284.67 440.73,284.00 441.35,284.00 C441.97,284.00 444.36,283.22 446.67,282.27 C449.49,281.10 450.47,280.42 450.71,279.00 L 450.72 279.02 C450.86,279.58 450.91,279.99 451.14,280.20 C451.71,280.71 453.39,279.97 460.28,276.94 L 460.29 276.94 C460.89,276.67 461.55,276.39 462.24,276.08 C464.85,274.94 467.36,274.00 467.84,274.00 C468.61,274.00 472.03,272.56 475.52,270.83 C475.54,270.94 475.56,271.00 475.57,271.00 C475.58,271.00 475.60,271.00 475.61,271.00 C475.61,271.00 475.62,271.00 475.62,271.00 C475.65,271.00 475.70,270.99 475.77,270.96 C476.51,270.90 479.51,269.18 482.40,267.33 ZM 393.30 154.90 C392.60,154.20 392.50,152.76 393.01,150.96 C393.76,148.34 393.65,148.18 391.66,148.87 C390.62,149.23 389.76,149.50 389.04,149.65 C392.73,148.61 397.79,144.67 398.65,141.28 C398.96,140.03 399.56,139.01 399.99,139.00 C399.59,139.27 398.95,140.51 398.57,141.75 C398.07,143.35 398.32,144.19 399.43,144.61 C400.31,144.95 400.81,145.80 400.97,146.88 C400.83,148.81 400.62,150.08 400.28,151.04 C399.87,151.95 399.30,152.81 398.57,153.52 L 398.57 153.52 C398.51,153.58 398.44,153.64 398.37,153.71 C397.26,154.73 395.94,155.61 395.11,155.90 C394.50,155.94 393.98,155.58 393.30,154.90 ZM 503.64 136.97 C502.11,136.84 500.38,136.76 498.65,136.75 C495.05,136.74 491.42,137.18 488.14,137.97 C489.53,137.56 490.94,137.21 492.32,136.95 C494.82,136.47 499.48,136.56 503.64,136.97 ZM 453.19 271.99 C452.60,273.08 451.99,274.15 451.37,275.22 C451.19,275.53 451.03,275.89 450.92,276.27 C451.15,275.10 451.64,273.91 452.23,273.25 C452.54,272.90 452.86,272.48 453.19,271.99 ZM 460.15 256.92 C461.83,252.32 463.46,247.22 464.83,242.18 C463.46,247.42 461.92,252.29 460.15,256.92 ZM 385.74 132.08 C385.83,131.83 385.92,131.62 386.02,131.48 C385.67,132.25 385.39,134.20 385.20,136.55 C385.30,134.35 385.48,132.90 385.74,132.08 ZM 387.23 130.71 C388.92,130.19 391.36,130.00 395.23,130.00 C391.63,130.00 388.74,130.27 387.23,130.71 ZM 468.31 225.80 C469.13,220.86 469.97,215.16 470.53,210.50 C469.87,215.95 469.14,221.03 468.31,225.80 ZM 504.98 155.39 C510.05,156.77 516.08,159.07 521.09,161.64 C516.04,159.06 510.03,156.77 504.98,155.39 ZM 491.74 262.35 C491.94,262.27 492.16,262.17 492.38,262.07 C492.04,262.24 491.70,262.39 491.38,262.54 C491.50,262.48 491.62,262.41 491.74,262.35 ZM 524.38 163.43 C523.90,163.15 523.42,162.88 522.93,162.61 C523.33,162.83 523.74,163.06 524.13,163.29 C524.21,163.33 524.30,163.38 524.38,163.43 ZM 402.13 132.70 C402.08,132.83 402.04,132.96 402.00,133.10 C402.04,132.94 402.09,132.79 402.14,132.65 Z" fill="rgb(200,23,208)"/>
<path d="M 478.04 290.98 L 477.94 291.03 C475.59,292.00 473.68,292.71 472.50,293.03 C470.85,293.47 466.40,294.99 462.60,296.42 C458.81,297.84 455.45,299.00 455.13,299.00 C454.82,299.00 457.14,296.41 460.28,293.25 C463.43,290.09 469.12,285.25 472.92,282.50 C479.98,277.41 482.51,273.67 480.88,270.75 C480.30,269.72 481.05,268.44 483.03,266.96 L 484.44 266.14 C486.07,265.29 487.82,264.38 489.50,263.51 C490.12,263.20 490.75,262.87 491.38,262.54 C491.70,262.39 492.04,262.24 492.38,262.07 C493.81,261.43 495.66,260.48 497.35,259.54 C498.08,259.17 498.90,258.70 499.74,258.17 L 502.83 256.19 L 503.99 255.50 L 503.97 212.00 C503.97,209.62 503.97,207.37 503.97,205.22 L 503.97 201.99 C503.98,205.00 503.98,208.24 503.98,211.75 L 504.00 255.00 L 514.71 247.25 C520.60,242.99 527.24,237.51 529.46,235.09 C530.35,234.12 531.33,233.07 532.27,232.07 C532.04,232.34 531.81,232.60 531.59,232.87 C529.59,235.28 525.68,239.05 522.90,241.27 C518.54,244.74 518.05,245.48 519.28,246.71 C520.18,247.60 523.44,248.26 528.10,248.48 C532.17,248.67 536.80,249.22 538.38,249.70 L 540.77 250.43 C537.49,253.74 533.84,257.14 530.17,260.28 L 530.17 260.28 C524.42,265.04 518.04,269.64 511.28,273.89 C506.15,277.00 500.38,280.22 494.79,283.14 C491.48,284.81 488.07,286.45 484.54,288.04 L 479.96 290.11 C479.35,290.35 478.72,290.63 478.10,290.95 ZM 387.23 130.71 C388.74,130.27 391.63,130.00 395.23,130.00 L 395.29 130.00 C402.48,130.00 403.14,130.16 402.39,131.75 C402.31,131.93 402.22,132.23 402.14,132.65 C402.09,132.79 402.04,132.94 402.00,133.10 C401.70,134.03 401.40,135.12 401.22,136.00 C400.94,137.38 400.38,138.73 399.99,139.00 C399.56,139.01 398.96,140.03 398.65,141.28 C397.79,144.67 392.73,148.61 389.04,149.65 C385.88,150.28 385.46,148.48 385.21,141.15 C385.16,139.89 385.15,138.73 385.16,137.68 C385.17,137.28 385.19,136.91 385.20,136.55 C385.39,134.20 385.67,132.25 386.02,131.48 C386.03,131.47 386.03,131.47 386.04,131.46 C386.31,131.16 386.69,130.91 387.23,130.71 ZM 536.24 227.96 C537.24,226.87 538.00,225.67 538.00,225.14 C538.00,224.51 538.42,224.00 538.93,224.00 C538.42,224.00 538.00,224.65 538.00,225.45 C538.00,226.25 537.38,227.26 536.61,227.70 C536.51,227.76 536.39,227.85 536.24,227.96 Z" fill="rgb(222,100,229)"/>
<path d="M 325.57 313.18 C326.96,312.37 327.16,312.14 325.77,312.11 C326.04,312.10 326.30,312.09 326.53,312.09 C332.97,311.98 368.89,303.96 398.27,296.24 C392.71,297.76 387.94,299.03 385.75,299.57 L 379.00 301.24 L 379.00 306.22 C379.00,309.71 378.36,312.09 376.85,314.21 C374.38,317.68 366.48,323.00 363.80,323.00 C362.81,323.00 362.00,323.43 362.00,323.95 C362.00,324.48 360.31,325.17 358.25,325.50 C356.19,325.82 352.92,326.50 351.00,327.01 L 350.75 327.08 C345.38,328.26 339.23,329.79 330.50,332.06 C323.90,333.78 316.70,335.56 314.50,336.02 C312.30,336.47 308.70,337.38 306.50,338.03 C306.31,338.08 306.12,338.14 305.91,338.19 C307.94,337.48 310.23,336.54 312.77,335.39 C315.67,334.07 318.84,333.00 319.82,333.00 C323.81,333.00 325.36,328.16 322.41,324.90 C320.94,323.28 320.98,323.00 322.81,321.43 C324.42,320.05 324.62,319.22 323.87,317.06 C322.94,314.40 322.91,314.39 313.72,314.65 L 307.90 314.81 L 314.07 314.61 C319.34,314.44 324.51,313.79 325.57,313.18 ZM 238.09 361.26 C234.84,362.66 231.65,364.23 228.57,365.91 C224.16,368.17 220.30,370.32 219.00,371.37 C218.18,372.04 215.83,373.15 213.78,373.85 C206.46,376.33 203.18,371.38 206.97,363.56 C208.17,361.09 209.00,358.10 208.82,356.92 C208.64,355.73 208.42,355.31 207.08,356.03 C209.78,354.18 212.64,352.37 215.67,350.60 C222.88,346.39 224.20,346.10 221.10,349.40 C217.49,353.23 218.54,356.86 224.40,360.77 C227.72,363.00 229.96,363.85 231.40,363.43 C233.08,362.95 236.61,361.67 240.31,360.26 C239.60,360.57 238.86,360.90 238.09,361.26 ZM 359.78 170.07 C359.68,170.04 359.55,170.02 359.37,170.02 C358.75,170.01 357.71,170.65 357.05,171.44 C355.68,173.09 353.00,172.44 353.00,170.45 C353.00,168.53 351.02,167.58 349.71,168.89 C348.63,169.97 346.76,170.30 344.76,169.98 C344.97,169.99 345.18,170.00 345.40,170.00 C351.32,170.00 352.16,167.61 352.38,150.10 C352.40,148.01 352.43,146.19 352.47,144.60 C352.52,145.89 352.59,147.36 352.67,149.06 L 353.29 161.62 L 356.63 163.81 C358.47,165.01 360.20,166.00 360.49,166.00 C360.77,166.00 361.00,162.62 361.00,158.50 L 361.00 159.77 C361.00,165.62 360.84,167.87 359.78,170.07 ZM 342.30 178.93 C342.93,178.98 343.63,179.00 344.40,179.00 C347.57,179.00 350.76,178.24 353.24,177.03 C349.97,178.84 346.06,179.52 342.30,178.93 ZM 337.20 131.20 C337.93,130.47 341.45,130.04 346.86,130.00 C342.39,130.14 337.82,130.58 337.20,131.20 ZM 173.88 401.27 C173.78,401.76 173.70,402.26 173.62,402.75 C173.62,402.81 173.61,402.87 173.60,402.92 C172.99,407.06 173.02,411.14 173.63,415.57 C173.84,417.04 174.11,418.56 174.44,420.12 C172.86,412.67 172.67,407.37 173.88,401.27 ZM 357.16 173.94 C357.26,173.80 357.35,173.65 357.43,173.50 C357.96,172.51 358.77,171.41 359.33,170.91 C359.06,171.36 358.76,171.84 358.40,172.36 C358.02,172.92 357.60,173.45 357.16,173.94 ZM 244.40 358.68 C244.36,358.69 244.32,358.71 244.28,358.72 C247.83,357.32 250.95,356.01 252.00,355.43 C253.38,354.68 259.23,352.50 265.00,350.59 C259.23,352.50 253.36,354.70 251.97,355.46 C250.91,356.05 248.24,357.21 245.43,358.33 C245.12,358.43 244.78,358.55 244.40,358.68 ZM 179.36 385.69 C177.60,389.34 176.23,392.68 175.23,395.88 C176.29,392.38 177.66,388.98 179.36,385.69 ZM 296.93 340.05 C295.65,340.36 294.65,340.76 294.43,341.11 C294.13,341.60 292.89,342.00 291.69,342.00 C292.89,342.00 294.16,341.55 294.50,341.00 C294.78,340.55 295.79,340.17 296.93,340.05 ZM 353.43 134.69 C353.66,134.06 353.94,133.62 354.28,133.24 C354.54,132.96 354.78,132.67 355.00,132.39 C354.71,132.83 354.38,133.31 354.03,133.79 C353.80,134.10 353.60,134.39 353.43,134.69 ZM 304.61 314.90 L 304.50 314.90 L 313.00 313.54 C313.60,313.44 314.23,313.35 314.87,313.26 C314.24,313.35 313.62,313.45 313.00,313.55 ZM 188.03 372.87 C187.18,373.87 186.36,374.87 185.58,375.87 C186.49,374.68 187.44,373.51 188.44,372.35 C188.31,372.52 188.17,372.70 188.03,372.87 ZM 355.99 130.62 C355.92,130.45 355.52,130.32 354.89,130.22 C355.31,130.28 355.66,130.35 355.95,130.43 C355.98,130.47 356.00,130.50 356.00,130.54 C356.00,130.56 356.00,130.59 355.99,130.62 ZM 346.86 130.00 L 346.92 130.00 C346.91,130.00 346.89,130.00 346.86,130.00 Z" fill="rgb(239,97,98)"/>
<path d="M 248.23 241.49 L 248.50 165.17 L 248.23 241.74 L 247.96 318.32 L 266.23 317.64 C285.66,316.93 296.38,315.98 312.50,313.56 C313.93,313.35 315.43,313.14 316.91,312.96 C316.24,313.05 315.55,313.15 314.87,313.26 C314.23,313.35 313.60,313.44 313.00,313.54 L 304.50 314.90 L 304.61 314.90 L 304.50 314.92 L 307.90 314.81 L 313.72 314.65 C322.91,314.39 322.94,314.40 323.87,317.06 C324.62,319.22 324.42,320.05 322.81,321.43 C320.98,323.00 320.94,323.28 322.41,324.90 C325.36,328.16 323.81,333.00 319.82,333.00 C318.84,333.00 315.67,334.07 312.77,335.39 C310.23,336.54 307.94,337.48 305.91,338.19 C303.72,338.80 300.63,339.45 298.74,339.71 C298.11,339.79 297.50,339.91 296.93,340.05 C295.79,340.17 294.78,340.55 294.50,341.00 C294.16,341.55 292.89,342.00 291.69,342.00 C290.48,342.00 286.34,343.15 282.50,344.55 C278.65,345.96 270.77,348.68 265.00,350.59 C259.23,352.50 253.38,354.68 252.00,355.43 C250.95,356.01 247.83,357.32 244.28,358.72 C243.21,359.06 241.85,359.59 240.31,360.26 C236.61,361.67 233.08,362.95 231.40,363.43 C229.96,363.85 227.72,363.00 224.40,360.77 C218.54,356.86 217.49,353.23 221.10,349.40 C222.63,347.77 223.08,347.01 222.28,347.17 C228.28,344.11 234.67,341.35 241.32,339.01 C245.90,337.39 251.64,335.21 254.07,334.15 L 258.50 332.23 L 240.50 332.37 C224.33,332.49 221.76,332.27 215.25,330.22 C211.26,328.97 208.00,327.60 208.00,327.18 C208.00,326.76 206.05,325.89 203.66,325.25 C203.20,325.13 202.70,324.95 202.15,324.73 C207.13,326.47 212.20,325.65 221.94,322.96 C224.64,322.22 227.47,321.43 229.50,320.87 C230.14,321.12 231.41,320.85 233.07,319.96 C234.13,319.40 235.00,318.50 235.00,317.98 C235.00,317.87 234.97,317.77 234.91,317.69 C234.91,317.66 234.91,317.63 234.92,317.60 L 236.94 317.76 L 237.22 242.00 L 236.94 318.50 L 247.96 317.82 ZM 353.38 134.77 C352.55,134.36 352.22,136.80 352.39,142.08 L 352.39 142.08 C352.41,142.83 352.43,143.67 352.47,144.60 C352.43,146.19 352.40,148.01 352.38,150.10 C352.16,167.61 351.32,170.00 345.40,170.00 C345.18,170.00 344.97,169.99 344.76,169.98 C342.69,169.66 340.49,168.65 338.92,167.08 L 336.00 164.15 L 336.00 148.28 C336.00,137.26 336.37,132.03 337.20,131.20 C337.79,130.61 342.40,130.17 346.90,130.00 L 346.92 130.00 L 346.94 130.00 C347.17,130.00 347.40,130.00 347.63,130.00 C351.25,130.00 353.48,130.04 354.89,130.22 C355.52,130.32 355.92,130.45 355.99,130.62 C355.92,130.89 355.53,131.57 355.00,132.39 C354.78,132.67 354.54,132.96 354.28,133.24 C353.94,133.62 353.66,134.06 353.43,134.69 C353.41,134.72 353.40,134.74 353.38,134.77 ZM 178.90 303.17 C179.11,303.55 179.33,303.92 179.56,304.29 L 179.56 304.30 C181.66,307.82 183.97,310.87 186.65,313.63 C184.93,311.96 183.47,310.32 182.47,308.88 C179.40,304.44 177.48,301.29 176.30,298.09 C176.50,298.54 176.72,299.00 176.96,299.50 C177.59,300.78 178.24,302.00 178.90,303.17 ZM 232.44 317.32 C232.17,317.36 231.90,317.42 231.64,317.48 C231.12,317.42 230.61,317.27 230.21,317.06 C229.55,316.71 227.54,316.03 225.16,315.34 C227.49,315.98 229.42,316.54 230.00,316.76 C230.52,316.95 231.45,317.16 232.44,317.32 ZM 189.13 371.51 C188.91,371.79 188.67,372.07 188.44,372.35 C187.44,373.51 186.49,374.68 185.58,375.87 C183.14,379.03 181.10,382.16 179.69,385.01 C181.92,380.46 185.13,375.92 189.13,371.51 ZM 358.40 305.98 C370.96,303.13 385.44,299.61 398.47,296.19 L 398.27 296.24 C385.22,299.67 370.88,303.16 358.40,305.98 ZM 325.24 312.11 C325.96,312.06 326.56,312.03 327.03,312.03 C327.36,312.03 327.80,312.00 328.32,311.95 C327.58,312.03 326.98,312.08 326.53,312.09 C326.30,312.09 326.04,312.10 325.77,312.11 C325.62,312.11 325.44,312.11 325.24,312.11 ZM 237.22 241.63 L 237.50 165.50 L 237.22 242.00 Z" fill="rgb(247,160,56)"/>
<path d="M 0.00 271.00 L 0.00 0.00 L 380.50 0.00 L 761.00 0.00 L 761.00 271.00 L 761.00 542.00 L 380.50 542.00 L 0.00 542.00 L 0.00 271.00 ZM 274.70 472.46 C281.19,471.61 289.88,470.23 294.00,469.41 C302.68,467.67 322.11,461.53 326.50,459.14 C329.18,457.68 337.59,457.45 405.00,457.00 L 480.50 456.50 L 486.16 453.72 C492.43,450.64 497.75,445.33 501.13,438.80 C502.81,435.55 503.50,432.06 503.93,424.56 L 504.50 414.62 L 508.00 413.72 C509.92,413.22 511.72,412.47 512.00,412.06 C512.27,411.64 514.43,411.05 516.79,410.74 C523.08,409.92 540.50,400.99 548.07,394.70 C555.44,388.59 559.95,382.40 563.08,374.11 C566.23,365.74 565.47,354.71 561.14,346.22 C553.30,330.83 536.41,319.37 514.50,314.58 C510.10,313.62 505.94,312.66 505.25,312.45 C504.34,312.17 504.01,308.87 504.04,300.28 L 504.08 288.50 L 513.79 282.21 C534.73,268.65 549.46,253.23 557.47,236.50 C562.09,226.83 565.12,216.37 564.87,210.89 C564.78,209.03 564.82,203.68 564.96,199.00 C565.34,185.81 562.15,175.85 554.08,165.04 C550.16,159.78 543.48,153.00 542.23,153.00 C541.62,153.00 540.53,152.19 539.81,151.20 C539.09,150.21 536.25,148.36 533.50,147.09 C530.75,145.81 528.28,144.47 528.00,144.10 C527.72,143.74 524.12,142.59 520.00,141.55 C515.88,140.52 512.26,139.30 511.96,138.86 C510.92,137.32 497.31,135.99 492.32,136.95 C486.61,138.04 480.18,140.60 477.79,142.72 C476.25,144.08 475.46,144.05 470.12,142.45 L 464.16 140.67 L 463.47 134.76 C462.90,129.79 462.20,128.24 459.05,124.93 L 455.31 121.00 L 444.11 121.00 C432.56,121.00 427.91,122.19 426.65,125.46 C426.23,126.56 424.63,127.00 421.02,127.00 C417.01,127.00 415.14,126.39 411.84,124.00 C407.76,121.04 407.52,121.00 395.04,121.00 L 382.37 121.00 L 379.50 124.00 C377.03,126.58 375.90,127.00 371.44,127.00 C367.94,127.00 365.82,126.49 364.95,125.43 C361.98,121.87 358.31,121.00 346.13,121.00 C334.16,121.00 334.15,121.00 331.15,124.00 C328.62,126.53 327.38,127.00 323.15,127.00 C319.16,127.00 317.50,126.45 314.89,124.25 C311.76,121.62 311.09,121.49 299.04,121.18 C287.26,120.87 286.28,120.99 283.61,123.09 C280.02,125.92 278.00,130.68 278.00,136.33 L 278.00 140.72 L 269.70 141.24 C255.61,142.11 245.46,148.53 240.11,159.93 L 237.50 165.50 L 237.22 241.63 L 236.94 317.76 L 234.22 317.54 C232.72,317.42 230.82,317.07 230.00,316.76 C229.18,316.45 225.57,315.43 222.00,314.49 C208.88,311.05 197.92,303.01 193.40,293.50 C186.27,278.52 194.81,262.60 218.18,247.29 L 228.00 240.85 L 228.00 231.93 C228.00,227.02 227.66,223.00 227.25,223.00 C225.62,223.02 212.05,230.47 204.31,235.61 C193.13,243.03 183.84,253.30 178.64,264.00 C174.55,272.39 174.50,272.64 174.50,283.50 C174.50,295.46 175.60,298.95 182.47,308.88 C186.53,314.75 198.26,323.81 203.66,325.25 C206.05,325.89 208.00,326.76 208.00,327.18 C208.00,327.60 211.26,328.97 215.25,330.22 C221.76,332.27 224.33,332.49 240.50,332.37 L 258.50 332.23 L 254.07 334.15 C251.64,335.21 245.90,337.39 241.32,339.01 C212.38,349.22 188.42,367.13 179.64,385.11 C173.14,398.43 171.78,407.57 174.44,420.12 C177.08,432.60 183.33,442.30 195.12,452.26 C206.13,461.56 215.94,466.67 229.43,470.11 C245.38,474.19 256.92,474.78 274.70,472.46 ZM 238.00 450.47 C222.28,447.24 209.37,441.15 201.05,433.05 C195.39,427.54 193.17,422.91 192.33,414.91 C191.84,410.18 192.15,408.36 194.23,403.87 C197.35,397.15 203.42,390.27 211.89,383.85 C218.02,379.21 229.64,372.93 234.75,371.50 L 237.00 370.87 L 237.00 390.27 C237.00,412.05 237.60,415.27 243.34,424.20 C245.35,427.34 247.00,430.65 247.00,431.57 C247.00,435.64 258.35,447.75 263.75,449.43 C264.99,449.82 266.00,450.55 266.00,451.07 C266.00,452.46 245.52,452.02 238.00,450.47 ZM 255.83 420.72 C248.57,415.23 248.00,413.16 248.02,392.50 C248.02,382.60 248.39,375.07 248.83,375.77 C249.42,376.68 250.86,375.83 254.07,372.69 C260.40,366.48 267.74,361.71 275.11,359.01 C278.62,357.73 282.07,356.24 282.77,355.70 C283.64,355.03 284.61,355.24 285.85,356.36 C287.48,357.84 292.97,358.00 340.66,358.00 C369.81,358.00 393.95,357.72 394.30,357.37 C394.65,357.02 394.48,355.90 393.93,354.87 C392.97,353.08 390.58,353.00 338.71,352.90 L 284.50 352.80 L 292.00 350.31 C301.03,347.32 333.35,339.00 335.97,339.00 C337.18,339.00 337.72,339.61 337.54,340.75 C336.98,344.22 338.78,344.98 343.82,343.40 C346.39,342.60 354.12,340.58 361.00,338.91 C405.23,328.16 415.95,325.46 430.26,321.43 C439.06,318.95 446.49,317.15 446.77,317.44 C447.47,318.14 442.50,329.44 438.94,335.25 C437.34,337.86 434.74,342.81 433.17,346.25 C427.36,359.01 423.39,363.85 407.50,377.50 C397.08,386.45 368.90,402.72 352.66,409.14 C347.09,411.35 330.08,416.87 320.68,419.53 C317.49,420.44 314.62,421.81 314.33,422.59 C313.88,423.75 309.12,424.00 286.97,424.00 L 260.16 424.00 L 255.83 420.72 ZM 367.43 389.12 C371.13,388.22 371.76,386.48 368.93,384.96 C366.42,383.62 289.38,383.54 284.39,384.87 C282.47,385.38 281.50,386.29 281.50,387.57 C281.50,389.43 282.75,389.52 314.50,390.00 C349.04,390.52 362.53,390.30 367.43,389.12 ZM 408.00 358.20 C408.00,355.48 405.97,354.00 402.23,354.00 C397.70,354.00 398.18,356.85 403.00,358.59 C407.73,360.29 408.00,360.27 408.00,358.20 ZM 504.00 363.00 L 504.00 330.00 L 506.82 330.00 C514.82,330.00 531.56,337.65 539.27,344.82 C550.48,355.26 551.03,367.51 540.77,378.64 C533.69,386.31 514.74,395.98 506.75,396.00 L 504.00 396.00 L 504.00 363.00 ZM 248.23 241.74 L 248.50 165.17 L 251.54 160.84 C255.97,154.53 261.64,151.75 271.18,151.20 L 279.00 150.74 L 279.00 159.22 C279.00,168.74 280.69,172.53 286.80,176.64 C292.07,180.20 297.25,180.59 302.78,177.84 C310.11,174.20 312.00,170.52 312.00,159.85 L 312.00 151.00 L 320.00 151.00 L 328.00 151.00 L 328.00 159.05 C328.00,168.59 329.36,171.80 335.19,176.02 C342.55,181.36 353.45,179.64 358.40,172.36 C360.71,168.96 361.00,167.56 361.00,159.77 L 361.00 151.00 L 369.00 151.00 L 377.00 151.00 L 377.00 159.63 C377.00,169.93 378.88,173.87 385.35,177.19 C393.99,181.60 403.58,178.99 407.70,171.09 C409.53,167.59 410.00,165.08 410.00,158.84 L 410.00 151.00 L 417.50 151.00 L 425.00 151.00 L 425.00 158.53 C425.00,167.50 426.60,171.85 431.14,175.24 C436.23,179.05 441.11,180.32 445.80,179.05 C454.67,176.67 458.00,171.22 458.00,159.10 C458.00,154.64 458.40,151.00 458.88,151.00 C459.36,151.00 461.32,151.65 463.23,152.45 C467.72,154.33 472.61,159.93 473.94,164.72 C475.33,169.73 475.39,233.00 474.00,233.00 C473.37,233.00 473.00,226.11 473.00,214.33 C473.00,204.07 472.83,195.85 472.62,196.08 C472.41,196.31 471.47,202.80 470.53,210.50 C469.60,218.20 467.92,228.77 466.81,234.00 C463.54,249.46 456.50,268.39 452.23,273.25 C451.39,274.21 450.73,276.24 450.77,277.77 C450.84,280.11 450.20,280.81 446.67,282.27 C444.36,283.22 441.97,284.00 441.35,284.00 C440.73,284.00 438.94,284.67 437.36,285.49 C435.79,286.32 432.92,287.26 431.00,287.60 C429.08,287.93 419.62,290.40 410.00,293.08 C379.93,301.44 333.77,311.98 327.03,312.03 C324.54,312.05 318.00,312.74 312.50,313.56 C296.38,315.98 285.66,316.93 266.23,317.64 L 247.96 318.32 L 248.23 241.74 ZM 313.50 264.50 C313.50,262.59 312.77,262.49 297.52,262.32 C281.47,262.13 278.68,262.70 281.13,265.66 C281.86,266.54 286.49,266.83 297.82,266.69 C312.77,266.51 313.50,266.41 313.50,264.50 ZM 439.27 265.75 C440.57,262.01 440.36,262.00 384.50,262.00 C339.30,262.00 330.13,262.23 329.69,263.38 C328.35,266.85 330.61,267.00 385.12,267.00 C427.19,267.00 438.93,266.73 439.27,265.75 ZM 305.85 236.50 C310.88,231.27 315.00,226.57 315.00,226.07 C315.00,224.82 312.11,222.00 310.82,222.00 C310.25,222.00 306.45,225.23 302.37,229.19 L 294.96 236.38 L 290.69 232.19 C288.34,229.88 285.74,228.00 284.91,228.00 C282.91,228.00 281.00,229.99 281.00,232.07 C281.00,234.00 293.38,246.00 295.37,246.00 C296.10,246.00 300.82,241.72 305.85,236.50 ZM 439.50 231.50 C439.50,229.53 438.75,229.50 385.06,229.24 C329.40,228.98 328.31,229.04 329.70,232.67 C330.13,233.78 339.75,233.97 384.86,233.76 C438.75,233.50 439.50,233.47 439.50,231.50 ZM 503.98 211.75 C503.95,164.17 504.04,164.92 497.57,157.25 C494.83,154.01 494.83,154.00 497.10,154.00 C502.09,154.00 512.96,157.47 521.19,161.69 C540.84,171.76 550.68,188.65 547.00,206.01 C546.30,209.31 545.34,212.00 544.86,212.00 C544.39,212.00 544.05,212.34 544.12,212.75 C544.45,214.83 543.86,217.00 542.63,218.23 C541.88,218.98 540.95,220.58 540.56,221.80 C540.18,223.01 539.45,224.00 538.93,224.00 C538.42,224.00 538.00,224.51 538.00,225.14 C538.00,225.76 536.99,227.26 535.75,228.47 C534.51,229.69 531.68,232.66 529.46,235.09 C527.24,237.51 520.60,242.99 514.71,247.25 L 504.00 255.00 L 503.98 211.75 ZM 313.71 140.37 C312.22,138.89 313.09,136.21 315.25,135.63 C316.49,135.30 319.89,135.02 322.82,135.01 C328.03,135.00 328.13,135.05 327.82,137.75 C327.51,140.40 327.27,140.51 320.96,140.79 C317.36,140.95 314.10,140.76 313.71,140.37 ZM 362.00 138.50 C362.00,136.54 362.51,136.00 364.36,136.00 C365.66,136.00 368.81,135.71 371.36,135.36 L 376.00 134.73 L 376.00 137.86 L 376.00 141.00 L 369.00 141.00 C362.20,141.00 362.00,140.93 362.00,138.50 ZM 410.58 140.13 C408.70,137.09 413.02,135.00 421.19,135.00 C424.90,135.00 425.11,135.16 424.82,137.75 C424.51,140.41 424.28,140.51 417.84,140.79 C414.17,140.96 410.91,140.66 410.58,140.13 Z" fill="rgb(253,253,253)"/>
</g>
</svg>